<?xml version="1.0" encoding="UTF-8" standalone="no"?>
<!-- Created with Inkscape (http://www.inkscape.org/) -->

<svg
   version="1.1"
   id="svg2"
   width="662.36151"
   height="160.38988"
   viewBox="0 0 662.36151 160.38988"
   sodipodi:docname="autocad.svg"
   inkscape:version="1.1.2 (08b2f3d93c, 2022-04-05)"
   xmlns:inkscape="http://www.inkscape.org/namespaces/inkscape"
   xmlns:sodipodi="http://sodipodi.sourceforge.net/DTD/sodipodi-0.dtd"
   xmlns="http://www.w3.org/2000/svg"
   xmlns:svg="http://www.w3.org/2000/svg">
  <defs
     id="defs6" />
  <sodipodi:namedview
     id="namedview4"
     pagecolor="#ffffff"
     bordercolor="#666666"
     borderopacity="1.0"
     inkscape:pageshadow="2"
     inkscape:pageopacity="0.0"
     inkscape:pagecheckerboard="0"
     showgrid="false"
     inkscape:zoom="1.0623573"
     inkscape:cx="605.72841"
     inkscape:cy="47.065145"
     inkscape:window-width="1920"
     inkscape:window-height="1052"
     inkscape:window-x="0"
     inkscape:window-y="0"
     inkscape:window-maximized="1"
     inkscape:current-layer="g8"
     fit-margin-top="2"
     fit-margin-left="2"
     fit-margin-right="2"
     fit-margin-bottom="2" />
  <g
     inkscape:groupmode="layer"
     inkscape:label="Image"
     id="g8"
     transform="translate(-18,-43.690558)">
    <path
       style="fill:#000000;stroke-width:0.8"
       d="m 288.12276,201.57401 c -1.91248,-0.39432 -4.60721,-1.37688 -5.98828,-2.18347 -3.25793,-1.90273 -7.44815,-7.43056 -8.498,-11.21075 -0.48278,-1.73833 -0.82942,-12.72884 -0.83202,-26.37979 L 272.8,138.4 h 6 6 v 22.8257 c 0,24.66956 0.3326,26.9828 4.24856,29.54864 4.72283,3.09452 12.68693,2.16828 17.25848,-2.00719 L 308.8,186.49019 V 162.4451 138.4 h 6 6 v 31.2 31.2 h -5.2 c -5.01334,0 -5.2,-0.0718 -5.2,-2 0,-2.04942 -1.82491,-2.77774 -2.84092,-1.13379 -1.80224,2.91609 -13.16546,5.20074 -19.43632,3.9078 z m 116.95349,0.038 c -8.31485,-1.75753 -13.96582,-6.16718 -17.39173,-13.57136 -1.52081,-3.28681 -1.68453,-5.0791 -1.68453,-18.44065 0,-16.48438 0.57811,-18.90258 5.99339,-25.07024 9.03383,-10.28897 32.23564,-9.52058 40.09981,1.328 4.21696,5.81727 4.86136,9.4183 4.57037,25.54005 L 436.39999,186 l -2.46731,4.4 c -2.68163,4.7822 -7.92248,8.96696 -12.99084,10.37305 -4.41209,1.22401 -12.11652,1.63143 -15.86559,0.83897 z m 12.48824,-10.39391 c 1.70542,-0.87004 3.94108,-2.76004 4.96814,-4.2 1.79639,-2.5186 1.86736,-3.18605 1.86736,-17.56036 0,-17.06177 -0.27342,-17.91448 -6.81634,-21.25776 -5.69896,-2.91202 -11.69529,-2.01564 -16.12082,2.40989 -3.19066,3.19067 -4.01581,7.76323 -3.72434,20.63845 0.31372,13.85808 1.34597,16.77027 6.98733,19.71267 4.32712,2.25693 8.74527,2.3454 12.83867,0.25711 z m 50.4355,10.66458 c -8.05263,-1.49037 -14.15652,-5.7261 -17.25835,-11.97627 -2.18085,-4.3944 -2.73225,-32.71327 -0.75299,-38.67226 1.6313,-4.91141 5.88746,-9.2997 11.52122,-11.87892 6.07756,-2.7824 16.43011,-2.8952 21.91749,-0.2388 7.19226,3.48171 10.17315,7.23402 11.34708,14.28357 l 0.56619,3.4 h -5.5944 -5.5944 l -1.07592,-3.32873 c -1.5402,-4.76516 -4.44677,-6.64461 -10.27592,-6.64461 -5.42637,0 -8.13492,1.54152 -10.51884,5.9866 -1.2802,2.38706 -1.48116,4.66468 -1.48116,16.78674 0,12.12206 0.20096,14.39968 1.48116,16.78674 2.38392,4.44508 5.09247,5.9866 10.51884,5.9866 5.79444,0 8.68102,-1.84897 10.37534,-6.64581 L 484.35066,182.4 h 5.42467 c 6.17545,0 6.3371,0.24778 4.21278,6.45749 -1.5206,4.44494 -6.02715,9.27318 -10.40813,11.15109 -3.47446,1.48932 -12.07147,2.52345 -15.57999,1.8741 z M 43.933333,200.4693 c -0.183334,-0.18188 -3.753334,-0.44004 -7.933334,-0.57369 C 27.215976,199.61477 20,197.11741 20,194.35822 20,189.99969 32.122536,146.79709 39.742329,124 50.200127,92.712104 56.674422,76.709279 67.332284,55.804563 l 4.810439,-9.435369 17.295316,0.215403 17.295321,0.215403 6.08345,12.026746 c 7.42316,14.675256 13.99432,30.049478 21.8722,51.173254 6.12303,16.4183 9.05116,25.96737 16.9266,55.2 2.4893,9.24 5.40128,19.83487 6.47104,23.54416 1.06976,3.70929 1.6679,6.99503 1.32919,7.30166 -1.68151,1.52222 -9.57797,3.0932 -17.94962,3.57101 l -9.33377,0.53273 -4.74584,-3.22284 -4.74584,-3.22283 -0.48328,-5.76455 c -0.46076,-5.49599 -5.67976,-28.27192 -6.94894,-30.32551 -0.47182,-0.76342 -2.23919,-0.77353 -8.10597,-0.0464 -17.162109,2.12711 -41.216737,5.70671 -42.759765,6.36314 -2.012141,0.85599 -3.263566,7.20656 -4.034205,20.47225 l -0.511379,8.80281 -6.199321,3.79719 c -5.502469,3.37035 -8.63056,4.49233 -9.664577,3.46648 z M 87.558095,121.6 c 6.82,-3.74 12.409432,-7.24386 12.420952,-7.78635 0.03616,-1.70295 -8.10732,-22.955322 -9.265056,-24.179362 -0.701216,-0.741384 -1.379424,-0.886984 -1.863136,-0.4 C 88.432543,89.655432 86.304743,94.86 84.122407,100.8 c -2.182336,5.94 -5.442654,14.55966 -7.245147,19.15478 -1.802494,4.59513 -3.277261,8.49513 -3.277261,8.66667 0,0.56727 1.4493,-0.16179 13.958096,-7.02145 z m 123.209245,77.8 c 0.29619,-0.77 3.77035,-12.02 7.72036,-25 3.95001,-12.98 8.09575,-26.39 9.21276,-29.8 l 2.03093,-6.2 h 7.74803 7.74802 l 2.1412,6.2 c 1.17767,3.41 4.53352,13.76 7.45744,23 2.92394,9.24 6.04179,18.96 6.92856,21.6 0.88678,2.64 2.07952,6.33 2.65055,8.2 l 1.03821,3.4 h -6.21465 -6.21467 l -2.53604,-8 -2.53604,-8 h -10.34001 -10.34001 l -1.11702,3.8 c -0.61436,2.09 -1.59637,5.69 -2.18224,8 l -1.0652,4.2 h -6.33436 c -5.70453,0 -6.2808,-0.1392 -5.79582,-1.4 z M 244.8,174.29892 c 0,-0.91306 -3.86874,-14.56811 -6.20438,-21.89892 l -1.27442,-4 -0.9681,3.6 c -0.53246,1.98 -2.08973,7.656 -3.4606,12.61334 -1.37088,4.95734 -2.4925,9.36734 -2.4925,9.8 0,0.45728 3.01474,0.78666 7.2,0.78666 4.80512,0 7.2,-0.29972 7.2,-0.90108 z M 348.8,174.4 V 148 h -8.4 -8.4 v -4.8 -4.8 h 23.23991 23.23993 l -0.23993,4.6 -0.23992,4.6 -8.6,0.22706 -8.6,0.22707 V 174.42706 200.8 h -6 H 348.8 Z m 152.75482,24.2 c 0.80299,-2.74684 17.61176,-57.83283 18.06409,-59.2 0.23532,-0.71122 2.63969,-1 8.32603,-1 h 7.99515 l 5.28216,16.6 c 2.90518,9.13 7.26713,22.72 9.69321,30.2 2.42608,7.48 4.55129,14.05 4.72269,14.6 0.23095,0.74111 -1.30239,1 -5.9228,1 h -6.23441 l -2.45956,-7.8 -2.45956,-7.8 -10.41752,-0.22278 -10.41753,-0.22278 -1.22023,4.22278 C 515.8354,191.29975 514.83221,194.91 514.27722,197 l -1.00908,3.8 h -6.17823 -6.17823 z m 33.64517,-24.09374 c 0,-1.30524 -6.5704,-23.7051 -7.1312,-24.31172 -0.49747,-0.53812 -7.2688,21.9392 -7.2688,24.12867 0,0.57077 2.51294,0.87679 7.2,0.87679 3.96,0 7.2,-0.31218 7.2,-0.69374 z m 31.2,-4.90626 v -31.2 h 13.0548 c 14.81929,0 19.21256,0.89263 24.7099,5.02059 2.22934,1.67403 4.27782,4.26459 5.8353,7.3795 2.36667,4.73325 2.4,4.97767 2.4,17.59991 0,15.56412 -0.98375,19.22868 -6.75161,25.15033 -5.67924,5.83065 -10.9509,7.24967 -26.93266,7.24967 h -12.31573 z m 29.58249,18.0171 c 4.12718,-4.03008 5.08965,-8.30382 4.69489,-20.84719 -0.2591,-8.23293 -0.56321,-10.03004 -2.17676,-12.86346 C 595.93285,149.39742 592.68495,148 584.77285,148 h -6.37286 v 21.69786 21.69785 l 7.20941,-0.34469 c 7.10616,-0.33975 7.25472,-0.38892 10.37308,-3.43392 z m 25.81672,-34.00138 c -2.8219,-1.19838 -4.6409,-5.76978 -3.7427,-9.4059 0.58566,-2.37088 1.39693,-3.32893 3.82164,-4.51304 2.63786,-1.2882 3.52512,-1.36929 6.20323,-0.56692 4.13007,1.2374 5.8568,3.91947 5.28207,8.20442 -0.24348,1.81529 -1.13703,3.99486 -1.98567,4.8435 -1.77936,1.77936 -6.94762,2.55522 -9.57857,1.43794 z m 8.39632,-2.57799 c 1.46264,-1.21389 1.25049,-7.03989 -0.31952,-8.77474 -1.67386,-1.8496 -6.43588,-1.92828 -8.41302,-0.139 -2.99435,2.70986 -1.52466,8.57534 2.53701,10.1251 1.48219,0.56553 4.84728,-0.0924 6.19553,-1.21136 z M 623.19999,146.4 c 0,-4.44807 0.13198,-4.7991 1.8,-4.78775 3.14766,0.0214 4.06288,1.13564 3.48092,4.23776 -0.31204,1.66333 -0.19091,3.0348 0.29454,3.33482 1.19008,0.73551 1.01362,2.01517 -0.27788,2.01517 -0.60633,0 -1.66745,-0.81 -2.35804,-1.8 l -1.25562,-1.8 -0.042,1.8 c -0.023,0.99 -0.40192,1.8 -0.84192,1.8 -0.44445,0 -0.8,-2.13334 -0.8,-4.8 z m 4,-1.51441 c 0,-0.39293 -0.54,-0.92162 -1.2,-1.17489 -0.73097,-0.2805 -1.2,-0.002 -1.2,0.7144 0,0.6462 0.54,1.1749 1.2,1.1749 0.66,0 1.2,-0.32149 1.2,-0.71441 z M 286.21123,109.60343 c -3.2459,-0.97736 -7.2523,-3.6634 -8.5884,-5.75799 C 273.84892,97.929128 274.0118,99.263144 273.75895,72.2 L 273.5179,46.4 h 3.6083 3.60831 l 0.23274,24.660304 0.23275,24.660304 1.96924,2.872232 c 5.20105,7.58598 18.10372,7.18474 25.285,-0.78632 L 311.16287,94.8 311.18144,70.6 311.2,46.4 h 3.6 3.6 V 78 109.6 h -3.2 -3.2 v -3.59471 -3.59472 l -3.63384,2.77377 c -5.88796,4.49438 -15.52256,6.41612 -22.15493,4.41909 z m 114.43704,-0.26987 c -5.00435,-1.41618 -10.60064,-6.14157 -13.27164,-11.206264 -2.15872,-4.09332 -2.17664,-4.259024 -2.17664,-20.127296 0,-14.652362 0.14353,-16.306801 1.70408,-19.642534 3.41481,-7.299331 10.09307,-11.662551 19.14412,-12.50775 14.28508,-1.333962 24.45485,5.786928 26.77055,18.744787 1.32893,7.436231 0.64666,26.579865 -1.11952,31.412761 -1.79547,4.912986 -6.4987,9.968036 -11.20145,12.039336 -4.88575,2.1519 -14.57351,2.78002 -19.8495,1.28696 z m 15.00672,-6.39442 c 3.94858,-1.5105 6.64309,-4.115596 8.54688,-8.26326 1.60309,-3.492568 1.77904,-5.141768 1.77904,-16.67588 0,-11.38047 -0.18962,-13.212477 -1.70979,-16.519333 -3.14667,-6.845 -7.41246,-9.492849 -15.24543,-9.463097 -8.75447,0.03325 -14.12527,4.310321 -16.26694,12.95427 -0.5798,2.340133 -0.82401,8.26155 -0.6434,15.6 0.27392,11.12892 0.41827,12.044752 2.44178,15.491936 1.18286,2.01508 2.70798,4.126324 3.38918,4.691664 3.56307,2.95709 12.73152,4.08767 17.70868,2.1837 z m 154.519,6.5876 c -8.29472,-1.95318 -14.974,-9.12153 -14.974,-16.070436 0,-2.263384 0.12127,-2.339408 3.35342,-2.102304 3.09188,0.226816 3.40863,0.464384 4.06129,3.046 0.98054,3.878584 4.8522,7.64281 9.0778,8.8259 4.54713,1.27312 12.75062,0.60367 16.0444,-1.30932 4.79135,-2.782748 6.44646,-9.637972 3.49548,-14.47774 -1.92524,-3.157488 -3.73421,-4.10988 -14.84092,-7.813449 -15.50551,-5.170363 -18.78313,-8.131336 -18.78848,-16.973311 -0.004,-6.16145 0.67383,-7.9689 4.37456,-11.669628 3.40464,-3.404645 6.60854,-4.542186 14.48596,-5.143225 10.35396,-0.789996 18.70804,3.209562 22.04451,10.553911 0.80126,1.763774 1.46475,4.217561 1.47441,5.45286 0.0168,2.144079 -0.13389,2.234836 -3.32025,2 C 593.75066,63.631419 593.2252,63.293468 592.5481,61.2 590.47204,54.78121 586.17434,52 578.33167,52 c -10.20231,0 -15.25484,5.106491 -13.07573,13.215384 0.70035,2.606126 5.32872,5.188674 15.00319,8.371498 11.83443,3.893436 15.97921,6.347746 18.09261,10.713438 3.55992,7.353816 1.30033,17.92546 -4.68104,21.90062 -5.67328,3.77041 -15.62596,5.17914 -23.49671,3.3258 z M 212.54053,109 c -0.19465,-0.33 2.65864,-9.78 6.34063,-21 3.68198,-11.22 8.2132,-25.17 10.06936,-31 l 3.37486,-10.6 h 4.96144 4.96145 L 252.52302,77 c 5.65112,16.83 10.27526,30.96 10.27586,31.4 6.2e-4,0.44 -1.63029,0.90651 -3.62423,1.0367 l -3.62535,0.2367 -3.13735,-9.6367 -3.13736,-9.6367 h -11.81971 -11.8197 l -2.96608,9.6 -2.96608,9.6 h -3.4043 c -1.87236,0 -3.56355,-0.27 -3.75819,-0.6 z m 34.37812,-26 c -0.22808,-0.55 -1.90449,-5.68 -3.72536,-11.4 -1.82087,-5.72 -3.94555,-12.150176 -4.72151,-14.289281 l -1.41084,-3.889281 -1.32255,4.689281 c -0.7274,2.579105 -2.76611,9.187923 -4.53047,14.686262 C 229.44356,78.29532 228,83.06532 228,83.396984 228,83.72864 232.35,84 237.66666,84 c 7.42117,0 9.57034,-0.232296 9.25199,-1 z M 350.39999,81.2 V 52.8 H 341.2 332 v -3.2 -3.2 h 21.99999 22 v 3.2 3.2 h -9.2 -9.2 v 28.4 28.4 h -3.6 -3.6 z m 99.8,27.95789 c -0.33,-0.34351 -0.6,-14.646826 -0.6,-31.785152 V 46.212144 l 13,0.327359 c 11.88813,0.29936 13.37633,0.502493 17.4,2.375032 5.54823,2.582035 8.48296,5.509363 11.11351,11.085465 1.95479,4.143654 2.07604,5.12243 2.08111,16.8 0.006,14.804984 -1.09905,18.84312 -6.79462,24.81967 -5.41115,5.67811 -10.42116,7.27287 -24.4,7.76693 -6.16,0.21772 -11.47,0.11479 -11.8,-0.22871 z m 25.34798,-7.86969 c 4.14682,-1.752288 8.12006,-6.324192 9.19049,-10.575256 0.47385,-1.8818 0.86153,-8.23136 0.86153,-14.110125 0,-9.903769 -0.15254,-10.994786 -2.07733,-14.857344 -3.20728,-6.436167 -7.219,-8.434589 -17.71168,-8.822998 l -8.21099,-0.303948 v 25.399741 25.39975 l 7.4,-0.3998 c 4.22232,-0.22812 8.7518,-0.97102 10.54798,-1.73002 z M 509.59999,77.98409 V 46.36818 l 17,0.21591 17,0.21591 0.2483,3 0.24829,3 h -13.64829 -13.6483 v 10.4 10.4 h 12.4 12.4 v 3.2 3.2 h -12.4 -12.4 v 11.6 11.6 h 13.6 13.6 v 3.2 3.2 h -17.2 -17.2 z M 615.99999,78 V 46.4 h 3.6 3.6 l 0.0266,16.6 c 0.0254,15.824573 0.0908,16.519576 1.4,14.878318 0.75536,-0.946925 3.89031,-4.906925 6.96657,-8.8 3.07625,-3.893075 5.77829,-7.258318 6.00454,-7.478318 0.22626,-0.22 1.48325,-1.84 2.79331,-3.6 2.38484,-3.203881 3.24931,-4.285414 6.60799,-8.267214 0.98946,-1.173032 1.79946,-2.402786 1.8,-2.732786 5.3e-4,-0.33 2.00549,-0.6 4.45545,-0.6 h 4.45448 l -1.81594,2.6 c -0.99876,1.43 -2.03387,2.78 -2.30025,3 -0.26637,0.22 -2.70631,3.28 -5.42208,6.8 -2.71576,3.52 -6.58719,8.499567 -8.60317,11.065705 -3.45458,4.397312 -3.59505,4.765469 -2.442,6.4 0.67288,0.953862 2.883,4.074295 4.91137,6.934295 2.02838,2.86 5.63815,8.148384 8.02172,11.751968 C 654.69719,101.96478 656.88343,104 659.778,104 c 1.54894,0 1.82199,0.41962 1.82199,2.8 v 2.8 l -4.2,-0.0288 c -5.1562,-0.0353 -6.95974,-1.38638 -12.2425,-9.1712 -10.72588,-15.80596 -13.43704,-19.6 -14.00589,-19.6 -0.34209,0 -2.26847,2.07 -4.28085,4.6 l -3.65887,4.6 -0.006,9.8 -0.006,9.8 h -3.6 -3.6 z m 49.01335,-17.172937 c -5.43182,-5.060508 -1.83159,-13.659785 5.69454,-13.601621 3.56029,0.02752 5.30539,0.98814 6.76144,3.721965 1.79514,3.370515 0.79076,8.130918 -2.2,10.427151 -2.07957,1.596638 -8.31162,1.263952 -10.25598,-0.547495 z m 9.20864,-1.272426 c 2.37175,-1.661231 2.47283,-6.85982 0.17801,-9.154637 -3.6302,-3.630201 -9.6,-0.894042 -9.6,4.4 0,5.126676 5.1677,7.734461 9.42199,4.754637 z m -7.02199,-4.802929 v -4.448293 l 3,0.248293 c 2.87582,0.238014 3,0.369666 3,3.180362 0,1.612637 0.27,3.202637 0.6,3.533332 0.9529,0.954905 0.69846,1.934598 -0.50242,1.934598 -0.60633,0 -1.66745,-0.81 -2.35804,-1.8 l -1.25562,-1.8 -0.042,1.8 c -0.0244,1.048017 -0.54324,1.8 -1.24192,1.8 -0.92279,0 -1.2,-1.027588 -1.2,-4.448292 z m 4.12,-1.551708 c 0,-0.418 -0.387,-0.889 -0.86,-1.046666 -0.473,-0.157668 -0.86,0.313332 -0.86,1.046666 0,0.733334 0.387,1.204334 0.86,1.046666 0.473,-0.157666 0.86,-0.628666 0.86,-1.046666 z"
       id="path194" />
  </g>
</svg>
