<?xml version="1.0" encoding="UTF-8" standalone="no"?>
<svg
   width="2491"
   height="2500"
   viewBox="0 0 435.816 437.46"
   version="1.1"
   id="svg23"
   sodipodi:docname="chrome.svg"
   inkscape:version="1.1.2 (08b2f3d93c, 2022-04-05)"
   xmlns:inkscape="http://www.inkscape.org/namespaces/inkscape"
   xmlns:sodipodi="http://sodipodi.sourceforge.net/DTD/sodipodi-0.dtd"
   xmlns="http://www.w3.org/2000/svg"
   xmlns:svg="http://www.w3.org/2000/svg">
  <defs
     id="defs27" />
  <sodipodi:namedview
     id="namedview25"
     pagecolor="#ffffff"
     bordercolor="#666666"
     borderopacity="1.0"
     inkscape:pageshadow="2"
     inkscape:pageopacity="0.0"
     inkscape:pagecheckerboard="0"
     showgrid="false"
     inkscape:zoom="0.20336391"
     inkscape:cx="1866.1128"
     inkscape:cy="1416.1805"
     inkscape:window-width="1920"
     inkscape:window-height="1052"
     inkscape:window-x="0"
     inkscape:window-y="0"
     inkscape:window-maximized="1"
     inkscape:current-layer="svg23" />
  <path
     d="m 217.341,0.039 c 0,0 128.478,-5.783 196.57,123.337 H 206.416 c 0,0 -39.188,-1.289 -72.593,46.255 -9.634,19.916 -28.22737,41.20344 -8.349,80.937 C 108.773,222.309 36.823,97.04 36.823,97.04 c 0,0 50.755,-91.864 180.518,-97.001 z"
     fill="#c6352e"
     id="path2"
     style="fill:#000000"
     sodipodi:nodetypes="ccccccc" />
  <path
     d="m 407.223,327.871 c 0,0 -59.247,114.143 -205.118,108.533 17.995,-31.148 103.772,-179.682 103.772,-179.682 0,0 20.709,-33.289 -3.744,-85.991 -8.52906,-18.85026 -23.89777,-42.6105 -65.919,-47.713 32.836,-0.326 177.285,0.021 177.285,0.021 0,0 54.168,89.891 -6.276,204.832 z"
     fill="#f4d911"
     id="path4"
     style="fill:#000000"
     sodipodi:nodetypes="ccccccc" />
  <path
     d="M28.373 328.738s-69.224-108.395 8.58-231.908c17.979 31.16 103.71 179.72 103.71 179.72s18.469 34.578 76.341 39.756c22.061-1.609 45.007-2.982 74.279-33.223-16.139 28.594-88.673 153.521-88.673 153.521S97.681 438.56 28.373 328.738z"
     fill="#81b354"
     id="path6"
     style="fill:#000000" />
  <path
     d="m 202.105,437.46 29.187,-121.793 c 0,0 47.01292,-24.95845 73.90292,-54.47145 C 288.50192,290.56055 202.105,437.46 202.105,437.46 Z"
     fill="#7baa50"
     id="path8"
     style="fill:#ffffff"
     sodipodi:nodetypes="cccc" />
  <path
     d="M119.59 220.093c0-53.69 43.52-97.215 97.215-97.215 53.69 0 97.214 43.524 97.214 97.215 0 53.693-43.522 97.219-97.214 97.219-53.695 0-97.215-43.525-97.215-97.219z"
     fill="#fff"
     id="path10" />
  <linearGradient
     id="a"
     gradientUnits="userSpaceOnUse"
     x1="-829.128"
     y1="1417.339"
     x2="-829.128"
     y2="1261.441"
     gradientTransform="matrix(1 0 0 -1 1045.93 1557.636)">
    <stop
       offset="0"
       stop-color="#a2c0e6"
       id="stop12" />
    <stop
       offset="1"
       stop-color="#406cb1"
       id="stop14" />
  </linearGradient>
  <path
     d="M135.86 220.093c0-44.702 36.238-80.941 80.945-80.941 44.698 0 80.94 36.239 80.94 80.941 0 44.703-36.242 80.945-80.94 80.945-44.707.001-80.945-36.244-80.945-80.945z"
     fill="url(#a)"
     id="path17"
     style="fill:#000000" />
  <path
     d="m 413.5,123.039 -120.183,35.237 c 0,0 -44.67112,-26.54889 -83.65212,-35.21089 33.776,-0.115 203.83512,-0.0261 203.83512,-0.0261 z"
     fill="#e7ce12"
     id="path19"
     style="fill:#ffffff"
     sodipodi:nodetypes="cccc" />
  <path
     d="M 127.84708,258.91002 C 110.95708,229.66002 36.827,97.037 36.827,97.037 l 89.029,88.07 c 0,0 -9.149,18.82 -5.68,45.7 z"
     fill="#bc332c"
     id="path21"
     style="fill:#ffffff"
     sodipodi:nodetypes="ccccc" />
</svg>
