<?xml version="1.0" encoding="UTF-8" standalone="no"?>
<svg
   height="1826.4833"
   viewBox="-10.63 -0.07077792 789.96204 609.56337"
   width="2397.1077"
   version="1.1"
   id="svg4"
   sodipodi:docname="discord-6.svg"
   inkscape:version="1.1.2 (08b2f3d93c, 2022-04-05)"
   xmlns:inkscape="http://www.inkscape.org/namespaces/inkscape"
   xmlns:sodipodi="http://sodipodi.sourceforge.net/DTD/sodipodi-0.dtd"
   xmlns="http://www.w3.org/2000/svg"
   xmlns:svg="http://www.w3.org/2000/svg">
  <defs
     id="defs8" />
  <sodipodi:namedview
     id="namedview6"
     pagecolor="#ffffff"
     bordercolor="#666666"
     borderopacity="1.0"
     inkscape:pageshadow="2"
     inkscape:pageopacity="0.0"
     inkscape:pagecheckerboard="0"
     showgrid="false"
     fit-margin-top="0"
     fit-margin-left="0"
     fit-margin-right="0"
     fit-margin-bottom="0"
     inkscape:zoom="0.39332604"
     inkscape:cx="1201.2935"
     inkscape:cy="912.72879"
     inkscape:window-width="1920"
     inkscape:window-height="1052"
     inkscape:window-x="0"
     inkscape:window-y="0"
     inkscape:window-maximized="1"
     inkscape:current-layer="svg4" />
  <path
     d="m 662.40193,51.411375 c 90.35,132.840005 134.97,282.680005 118.29,455.180005 -0.07,0.73 -0.45,1.4 -1.05,1.84 -68.42,50.24 -134.71,80.73 -200.07,100.95 a 2.55,2.55 0 0 1 -2.81,-0.95 c -15.1,-21.01 -28.82,-43.16 -40.84,-66.42 -0.69,-1.37 -0.06,-3.02 1.36,-3.56 21.79,-8.21 42.51,-18.05 62.44,-29.7 1.57,-0.92 1.67,-3.17 0.22,-4.25 -4.23,-3.14 -8.42,-6.44 -12.43,-9.74 -0.75,-0.61 -1.76,-0.73 -2.61,-0.32 -129.39,59.75 -271.13,59.75 -402.05,0 -0.85,-0.38 -1.86,-0.25 -2.59,0.35 -4,3.3 -8.2,6.57 -12.39,9.71 -1.45,1.08 -1.33,3.33 0.25,4.25 19.93,11.43 40.65,21.49 62.41,29.74 1.41,0.54 2.08,2.15 1.38,3.52 -11.76,23.29 -25.48,45.44 -40.86,66.45 -0.67,0.85 -1.77,1.24 -2.81,0.92 -65.05,-20.22 -131.340003,-50.71 -199.760003,-100.95 -0.57,-0.44 -0.98,-1.14 -1.04,-1.87 -13.94,-149.21 14.4700005,-300.29 118.180003,-455.180005 0.25,-0.41 0.63,-0.73 1.07,-0.92 51.03,-23.42 105.7,-40.6499999 162.84,-50.48999987 1.04,-0.16 2.08,0.32 2.62,1.23999997 7.06,12.4999999 15.13,28.5299999 20.59,41.6299999 60.23,-9.2 121.4,-9.2 182.89,0 5.46,-12.82 13.25,-29.13 20.28,-41.6299999 a 2.47,2.47 0 0 1 2.62,-1.23999997 c 57.17,9.86999997 111.84,27.09999987 162.83,50.48999987 0.45,0.19 0.82,0.51 1.04,0.95 z m -339.04,283.700005 c 0.63,-44.11 -31.53,-80.61 -71.9,-80.61 -40.04,0 -71.89,36.18 -71.89,80.61 0,44.42 32.48,80.6 71.89,80.6 40.05,0 71.9,-36.18 71.9,-80.6 z m 265.82,0 c 0.63,-44.11 -31.53,-80.61 -71.89,-80.61 -40.05,0 -71.9,36.18 -71.9,80.61 0,44.42 32.48,80.6 71.9,80.6 40.36,0 71.89,-36.18 71.89,-80.6 z"
     fill="#5865f2"
     id="path2"
     style="fill:#000000" />
</svg>
