<?xml version="1.0" encoding="UTF-8" standalone="no"?>
<svg
   width="1662.3341"
   height="1054.6949"
   viewBox="1 1 398.96019 253.12679"
   version="1.1"
   id="svg13"
   sodipodi:docname="email.svg"
   inkscape:version="1.1.2 (08b2f3d93c, 2022-04-05)"
   xmlns:inkscape="http://www.inkscape.org/namespaces/inkscape"
   xmlns:sodipodi="http://sodipodi.sourceforge.net/DTD/sodipodi-0.dtd"
   xmlns="http://www.w3.org/2000/svg"
   xmlns:svg="http://www.w3.org/2000/svg">
  <defs
     id="defs17" />
  <sodipodi:namedview
     id="namedview15"
     pagecolor="#ffffff"
     bordercolor="#666666"
     borderopacity="1.0"
     inkscape:pageshadow="2"
     inkscape:pageopacity="0.0"
     inkscape:pagecheckerboard="0"
     showgrid="false"
     fit-margin-top="0"
     fit-margin-left="0"
     fit-margin-right="0"
     fit-margin-bottom="0"
     inkscape:zoom="0.2876"
     inkscape:cx="794.50626"
     inkscape:cy="538.94298"
     inkscape:window-width="1920"
     inkscape:window-height="1052"
     inkscape:window-x="0"
     inkscape:window-y="0"
     inkscape:window-maximized="1"
     inkscape:current-layer="g11" />
  <g
     transform="matrix(6.66667,0,0,6.66667,-110.04006,-6578.71)"
     id="g11">
    <linearGradient
       id="a"
       gradientUnits="userSpaceOnUse"
       x1="-110.934"
       y1="1129.751"
       x2="-110.35"
       y2="1720.099"
       gradientTransform="matrix(1,0,0,-1,156.89,2180.75)">
      <stop
         offset="0"
         stop-color="#70efff"
         id="stop2" />
      <stop
         offset="1"
         stop-color="#5770ff"
         id="stop4" />
    </linearGradient>
    <path
       d="m 20.719,986.956 c -0.474,0 -0.921,0.082 -1.344,0.25 l 8.469,8.719 8.563,8.875 0.156,0.188 0.25,0.25 0.25,0.25 0.5,0.531 7.344,7.531 c 0.122,0.076 0.477,0.404 0.754,0.543 0.357,0.178 0.743,0.343 1.141,0.357 0.43,0.015 0.869,-0.108 1.256,-0.296 0.29,-0.141 0.419,-0.343 0.755,-0.603 l 8.5,-8.781 8.594,-8.844 8.281,-8.531 a 3.635,3.635 0 0 0 -1.75,-0.438 H 20.719 Z m -2.594,1.062 c -0.903,0.856 -1.469,2.142 -1.469,3.594 v 28.625 c 0,1.175 0.377,2.243 1,3.062 l 1.187,-1.125 8.844,-8.594 7.844,-7.594 -0.156,-0.187 -8.594,-8.844 -8.594,-8.875 z m 57.188,0.282 -8.375,8.656 -8.563,8.844 -0.156,0.156 8.156,7.906 8.844,8.594 0.531,0.5 c 0.476,-0.764 0.75,-1.705 0.75,-2.719 v -28.625 c 0,-1.294 -0.448,-2.468 -1.187,-3.312 z m -38.782,18.718 -7.812,7.594 -8.875,8.594 -1.125,1.094 c 0.593,0.382 1.268,0.625 2,0.625 h 51.719 c 0.88,0 1.678,-0.338 2.344,-0.875 l -0.562,-0.562 -8.875,-8.594 -8.156,-7.875 -7.344,7.562 c -0.397,0.264 -0.663,0.556 -1.051,0.735 -0.625,0.289 -1.309,0.533 -1.997,0.523 -0.69,-0.011 -1.367,-0.281 -1.986,-0.585 -0.311,-0.153 -0.477,-0.305 -0.841,-0.61 z"
       fill="#fff"
       id="path9"
       style="fill:#000000" />
  </g>
</svg>
