<?xml version="1.0" encoding="UTF-8" standalone="no"?>
<svg
   width="1771"
   height="2008.5131"
   viewBox="74.634 0 362.733 411.34348"
   version="1.1"
   id="svg16"
   sodipodi:docname="html5-2.svg"
   inkscape:version="1.1.2 (08b2f3d93c, 2022-04-05)"
   xmlns:inkscape="http://www.inkscape.org/namespaces/inkscape"
   xmlns:sodipodi="http://sodipodi.sourceforge.net/DTD/sodipodi-0.dtd"
   xmlns="http://www.w3.org/2000/svg"
   xmlns:svg="http://www.w3.org/2000/svg">
  <defs
     id="defs20" />
  <sodipodi:namedview
     id="namedview18"
     pagecolor="#ffffff"
     bordercolor="#666666"
     borderopacity="1.0"
     inkscape:pageshadow="2"
     inkscape:pageopacity="0.0"
     inkscape:pagecheckerboard="0"
     showgrid="false"
     fit-margin-top="0"
     fit-margin-left="0"
     fit-margin-right="0"
     fit-margin-bottom="0"
     inkscape:zoom="0.2876"
     inkscape:cx="864.04729"
     inkscape:cy="757.99722"
     inkscape:window-width="1920"
     inkscape:window-height="1052"
     inkscape:window-x="0"
     inkscape:window-y="0"
     inkscape:window-maximized="1"
     inkscape:current-layer="svg16" />
  <path
     d="M 107.644,370.23427 74.634,-0.02272727 H 437.367 L 404.321,370.17627 l -148.543,41.181 z"
     id="path2" />
  <path
     d="m 256,379.87927 120.03,-33.276 28.24,-316.351997 H 256 Z"
     id="path4" />
  <g
     fill="#ebebeb"
     id="g8"
     transform="translate(0,-100.64273)">
    <path
       d="m 256,268.217 h -60.09 l -4.15,-46.501 H 256 V 176.305 H 142.132 l 1.087,12.183 11.161,125.139 H 256 Z m 0,117.936 -0.198,0.053 -50.575,-13.656 -3.233,-36.217 h -45.585 l 6.362,71.301 93.02,25.823 0.209,-0.058 z"
       id="path6" />
  </g>
  <g
     fill="#ffffff"
     id="g14"
     transform="translate(0,-100.64273)">
    <path
       d="m 255.844,268.217 v 45.41 h 55.917 l -5.271,58.894 -50.646,13.67 v 47.244 l 93.093,-25.801 0.683,-7.672 10.671,-119.551 1.108,-12.194 h -12.237 z m 0,-91.912 v 45.411 h 109.687 l 0.911,-10.207 2.069,-23.021 1.086,-12.183 z"
       id="path12" />
  </g>
</svg>
