<?xml version="1.0" encoding="UTF-8" standalone="no"?>
<svg
   height="2490"
   width="2490"
   viewBox="0 0 256 254.976"
   version="1.1"
   id="svg8"
   sodipodi:docname="linkedin-icon-2.svg"
   inkscape:version="1.1.2 (08b2f3d93c, 2022-04-05)"
   xmlns:inkscape="http://www.inkscape.org/namespaces/inkscape"
   xmlns:sodipodi="http://sodipodi.sourceforge.net/DTD/sodipodi-0.dtd"
   xmlns="http://www.w3.org/2000/svg"
   xmlns:svg="http://www.w3.org/2000/svg">
  <defs
     id="defs12" />
  <sodipodi:namedview
     id="namedview10"
     pagecolor="#ffffff"
     bordercolor="#666666"
     borderopacity="1.0"
     inkscape:pageshadow="2"
     inkscape:pageopacity="0.0"
     inkscape:pagecheckerboard="0"
     showgrid="false"
     objecttolerance="10000"
     inkscape:snap-path-clip="true"
     inkscape:snap-path-mask="true"
     gridtolerance="10000"
     guidetolerance="10000"
     inkscape:snap-perpendicular="true"
     showguides="true"
     inkscape:guide-bbox="true"
     fit-margin-top="0"
     fit-margin-left="0"
     fit-margin-right="0"
     fit-margin-bottom="0"
     inkscape:zoom="0.2876"
     inkscape:cx="1754.1725"
     inkscape:cy="1241.3074"
     inkscape:window-width="1920"
     inkscape:window-height="1052"
     inkscape:window-x="0"
     inkscape:window-y="0"
     inkscape:window-maximized="1"
     inkscape:current-layer="g6">
    <sodipodi:guide
       position="0,254.976"
       orientation="0,-1"
       id="guide2469" />
    <sodipodi:guide
       position="237.08,0"
       orientation="0,-1"
       id="guide2927" />
  </sodipodi:namedview>
  <g
     fill="none"
     id="g6"
     transform="translate(0,-0.51405622)">
    <path
       d="m 0,0 v 0 h 256 v 0 256 0 H 0 v 0 z"
       fill="#006699"
       id="path2"
       sodipodi:nodetypes="ccccccccc"
       style="fill:#000000" />
    <path
       d="M 77.796,214.238 V 98.986 H 39.488 V 214.238 H 77.8 Z M 58.65,83.253 c 13.356,0 21.671,-8.85 21.671,-19.91 -0.25,-11.312 -8.315,-19.915 -21.417,-19.915 -13.111,0 -21.674,8.603 -21.674,19.914 0,11.06 8.312,19.91 21.169,19.91 h 0.248 z M 99,214.238 h 38.305 v -64.355 c 0,-3.44 0.25,-6.889 1.262,-9.346 2.768,-6.885 9.071,-14.012 19.656,-14.012 13.858,0 19.405,10.568 19.405,26.063 v 61.65 h 38.304 v -66.082 c 0,-35.399 -18.896,-51.872 -44.099,-51.872 -20.663,0 -29.738,11.549 -34.78,19.415 h 0.255 V 98.99 H 99.002 c 0.5,10.812 -0.003,115.252 -0.003,115.252 z"
       fill="#ffffff"
       id="path4" />
  </g>
</svg>
