<?xml version="1.0" encoding="UTF-8" standalone="no"?>
<svg
   width="2500"
   height="2500"
   viewBox="0 0 1052 1052"
   version="1.1"
   id="svg6"
   sodipodi:docname="logo-javascript.svg"
   inkscape:version="1.1.2 (08b2f3d93c, 2022-04-05)"
   xmlns:inkscape="http://www.inkscape.org/namespaces/inkscape"
   xmlns:sodipodi="http://sodipodi.sourceforge.net/DTD/sodipodi-0.dtd"
   xmlns="http://www.w3.org/2000/svg"
   xmlns:svg="http://www.w3.org/2000/svg">
  <defs
     id="defs10" />
  <sodipodi:namedview
     id="namedview8"
     pagecolor="#ffffff"
     bordercolor="#666666"
     borderopacity="1.0"
     inkscape:pageshadow="2"
     inkscape:pageopacity="0.0"
     inkscape:pagecheckerboard="0"
     showgrid="false"
     inkscape:zoom="0.2876"
     inkscape:cx="2501.7385"
     inkscape:cy="1248.2615"
     inkscape:window-width="1920"
     inkscape:window-height="1052"
     inkscape:window-x="0"
     inkscape:window-y="0"
     inkscape:window-maximized="1"
     inkscape:current-layer="svg6" />
  <path
     fill="#f0db4f"
     d="M0 0h1052v1052H0z"
     id="path2"
     style="fill:#000000" />
  <path
     d="M965.9 801.1c-7.7-48-39-88.3-131.7-125.9-32.2-14.8-68.1-25.399-78.8-49.8-3.8-14.2-4.3-22.2-1.9-30.8 6.9-27.9 40.2-36.6 66.6-28.6 17 5.7 33.1 18.801 42.8 39.7 45.4-29.399 45.3-29.2 77-49.399-11.6-18-17.8-26.301-25.4-34-27.3-30.5-64.5-46.2-124-45-10.3 1.3-20.699 2.699-31 4-29.699 7.5-58 23.1-74.6 44-49.8 56.5-35.6 155.399 25 196.1 59.7 44.8 147.4 55 158.6 96.9 10.9 51.3-37.699 67.899-86 62-35.6-7.4-55.399-25.5-76.8-58.4-39.399 22.8-39.399 22.8-79.899 46.1 9.6 21 19.699 30.5 35.8 48.7 76.2 77.3 266.899 73.5 301.1-43.5 1.399-4.001 10.6-30.801 3.199-72.101zm-394-317.6h-98.4c0 85-.399 169.4-.399 254.4 0 54.1 2.8 103.7-6 118.9-14.4 29.899-51.7 26.2-68.7 20.399-17.3-8.5-26.1-20.6-36.3-37.699-2.8-4.9-4.9-8.7-5.601-9-26.699 16.3-53.3 32.699-80 49 13.301 27.3 32.9 51 58 66.399 37.5 22.5 87.9 29.4 140.601 17.3 34.3-10 63.899-30.699 79.399-62.199 22.4-41.3 17.6-91.3 17.4-146.6.5-90.2 0-180.4 0-270.9z"
     fill="#323330"
     id="path4" />
  <path
     style="fill:#ffffff;stroke-width:3.47705"
     d="m 949.23505,2297.703 c -93.97426,-15.3456 -157.53412,-44.9176 -211.59917,-98.4491 -13.63571,-13.5012 -32.76651,-35.8489 -42.51287,-49.6615 -17.09377,-24.2255 -36.12187,-57.8335 -33.84774,-59.783 2.07732,-1.7807 184.64801,-113.1056 185.49104,-113.1056 0.46294,0 7.12247,10.5615 14.79893,23.4701 43.586,73.293 83.94818,97.8245 154.83176,94.1041 47.1032,-2.4723 80.1797,-23.042 96.5457,-60.0402 12.6442,-28.5843 13.622,-62.9694 13.622,-479.0353 v -406.037 h 114.1967 114.1967 l 1.7722,237.3088 c 3.1245,418.4064 1.5929,604.0375 -5.3117,643.7811 -13.3586,76.8926 -37.9254,127.9207 -84.0333,174.5471 -66.5911,67.3397 -143.6813,95.5176 -259.0404,94.6843 -27.72946,-0.2003 -54.32891,-1.003 -59.10985,-1.7838 z"
     id="path86"
     transform="scale(0.4208)" />
  <path
     style="fill:#ffffff;stroke-width:3.47705"
     d="m 1839.3602,2296.5556 c -61.9544,-8.4954 -121.6175,-27.0674 -174.2,-54.2252 -51.2666,-26.4781 -92.604,-62.0395 -136.8045,-117.6891 -18.9794,-23.8956 -39.8236,-59.2253 -36.6171,-62.0639 0.9103,-0.8058 42.6886,-25.057 92.8407,-53.8915 l 91.1858,-52.4263 24.917,33.1513 c 40.0285,53.2564 86.2038,86.0382 140.9185,100.0439 47.2702,12.1 128.7076,4.7208 167.7571,-15.2007 48.103,-24.5404 70.5002,-78.7521 54.8199,-132.6902 -13.0497,-44.8897 -48.9866,-69.7785 -186.0505,-128.8532 -113.4484,-48.8963 -179.4257,-86.5098 -223.7862,-127.5798 -39.1869,-36.2802 -73.3259,-97.7628 -88.6302,-159.6187 -9.2158,-37.2476 -8.3653,-119.6168 1.6139,-156.3141 10.0217,-36.8534 21.242,-61.9446 40.9719,-91.6227 75.2906,-113.2532 227.0375,-164.5841 389.0002,-131.5859 71.5381,14.5751 119.4728,40.7832 168.9495,92.3721 16.2315,16.9245 37.6272,42.617 47.5461,57.0945 l 18.0343,26.3228 -11.0802,6.5066 c -6.0941,3.5786 -45.9178,28.8922 -88.4971,56.2524 -42.5793,27.3602 -78.5695,49.7458 -79.9782,49.7458 -1.4087,0 -6.2541,-6.961 -10.7675,-15.469 -9.9494,-18.7549 -45.8386,-53.9429 -64.9747,-63.7054 -43.7038,-22.296 -95.8148,-24.0368 -135.4494,-4.5248 -36.7917,18.1125 -53.8922,46.76 -53.8557,90.2212 0.036,43.2946 13.4784,69.3956 48.2488,93.6879 25.4654,17.7913 49.886,29.9059 132.3338,65.6485 125.2786,54.3105 181.6758,87.0998 233.2349,135.603 61.8324,58.1675 88.707,115.1758 97.3121,206.4261 10.753,114.0249 -30.5912,214.0787 -114.6279,277.4023 -43.8225,33.0212 -93.5263,54.5931 -161.8201,70.2312 -35.693,8.1732 -143.1831,12.1483 -182.5452,6.7509 z"
     id="path125"
     transform="scale(0.4208)" />
</svg>
