<?xml version="1.0" encoding="UTF-8" standalone="no"?>
<!-- Created with Inkscape (http://www.inkscape.org/) -->

<svg
   version="1.1"
   id="svg2"
   width="474"
   height="610"
   viewBox="0 0 474 610"
   sodipodi:docname="lumion.svg"
   inkscape:version="1.1.2 (08b2f3d93c, 2022-04-05)"
   xmlns:inkscape="http://www.inkscape.org/namespaces/inkscape"
   xmlns:sodipodi="http://sodipodi.sourceforge.net/DTD/sodipodi-0.dtd"
   xmlns="http://www.w3.org/2000/svg"
   xmlns:svg="http://www.w3.org/2000/svg">
  <defs
     id="defs6" />
  <sodipodi:namedview
     id="namedview4"
     pagecolor="#ffffff"
     bordercolor="#666666"
     borderopacity="1.0"
     inkscape:pageshadow="2"
     inkscape:pageopacity="0.0"
     inkscape:pagecheckerboard="0"
     showgrid="false"
     inkscape:zoom="0.83345865"
     inkscape:cx="159.576"
     inkscape:cy="377.94317"
     inkscape:window-width="1920"
     inkscape:window-height="1052"
     inkscape:window-x="0"
     inkscape:window-y="0"
     inkscape:window-maximized="1"
     inkscape:current-layer="g8" />
  <g
     inkscape:groupmode="layer"
     inkscape:label="Image"
     id="g8">
    <path
       style="fill:#000000"
       d="m 327,593.91668 c -2.475,-0.4753 -7.41929,-2.34115 -10.98732,-4.14634 -12.00423,-6.07335 -17.02249,-17.06296 -17.00081,-37.23044 0.0228,-21.16638 5.35653,-31.63126 19.48813,-38.23576 5.70742,-2.6674 6.70708,-2.80414 20.5,-2.80414 13.52896,0 14.87138,0.17419 20.04563,2.60111 7.60521,3.56714 12.0682,7.75186 15.29456,14.34096 3.77814,7.71597 4.95233,15.19054 4.40765,28.05793 -0.34694,8.19586 -1.04587,12.50883 -2.74175,16.91881 -2.61057,6.78855 -8.64812,13.84776 -14.31716,16.73989 -8.20118,4.18393 -23.71778,5.8649 -34.68893,3.75798 z m 22.52058,-15.48102 C 357.04285,574.75227 360.34103,566.84723 360.34161,552.5 360.34238,533.43768 353.79425,525 339,525 c -14.77821,0 -21.28879,8.05248 -21.42576,26.5 -0.0865,11.64676 1.42339,17.82826 5.58897,22.88183 5.28853,6.41591 17.65061,8.31722 26.35737,4.05383 z M 95.734467,592.91195 C 86.664439,590.77507 78.046556,583.97924 75.897306,577.26889 75.107658,574.80346 74.540816,562.86518 74.258311,542.75 L 73.826448,512 H 82.913224 92 l 0.02196,28.25 c 0.01989,25.5881 0.200941,28.64421 1.921417,32.43368 2.57122,5.6633 6.615993,7.67568 15.556623,7.73987 10.75734,0.0772 15.82922,-3.54979 17.57094,-12.56539 0.46308,-2.39699 0.86156,-15.94566 0.88551,-30.10816 L 128,512 h 8.5 8.5 l -0.0245,29.25 c -0.0137,16.45184 -0.4761,31.21018 -1.0567,33.72995 -1.96398,8.52359 -8.93069,14.74621 -19.62939,17.53287 -6.23114,1.62301 -22.40088,1.84902 -28.554993,0.39913 z m -65.765088,-1.44789 c -6.252483,-1.92744 -12.213578,-7.33227 -15.077521,-13.67056 -2.326431,-5.1487 -2.400509,-6.12205 -2.708109,-35.5834 l -0.31625,-30.2899 8.81625,0.2899 L 29.5,512.5 30,542.14676 c 0.469663,27.84796 0.621205,29.78058 2.497639,31.85238 C 36.464073,578.37853 39.130053,579 53.95034,579 H 68 v 7 7 L 51.25,592.9303 C 39.923054,592.8832 33.033146,592.40846 29.969379,591.46401 Z M 161,552.5 V 512 h 12.76873 12.76874 L 196.5,542 c 5.47939,16.5 10.20439,30 10.5,30 0.29561,0 5.02061,-13.5 10.5,-30 l 9.96253,-30 H 240.23127 253 v 40.5 40.5 l -8.75,10e-4 -8.75,10e-4 0.62523,-29.75116 c 0.34388,-16.36315 0.54428,-29.85077 0.44534,-29.97249 -0.0989,-0.12173 -4.61999,13.26577 -10.04678,29.75 L 216.6569,593 h -9.1945 -9.1945 l -2.56796,-7.25 C 194.28756,581.7625 189.5137,567.925 185.09136,555 l -8.04062,-23.5 0.45621,9 c 0.25091,4.95 0.71171,18.7875 1.02399,30.75 L 179.09873,593 H 170.04937 161 Z m 108,0 V 512 h 9 9 v 40.5 40.5 h -9 -9 z m 122,-0.0338 v -40.53383 l 10.70038,0.28383 10.70039,0.28383 15.60499,27.22204 c 8.58274,14.97212 15.93089,27.54795 16.32923,27.94628 0.39833,0.39833 0.68228,-11.85158 0.63099,-27.22204 l -0.0933,-27.94628 8.56363,-0.28893 8.56364,-0.28894 v 40.53894 40.53893 h -9.95097 -9.95097 L 425.29903,563.45665 408.5,533.91329 408.23512,563.45665 407.97024,593 H 399.48512 391 V 552.46617 Z M 12,255.49782 V 14.995633 L 237.25,15.247817 462.5,15.5 462.16184,79 c -0.29157,54.75293 -0.5561,64.11987 -1.92038,68 -1.05407,2.99787 -1.60881,8.23107 -1.66185,15.67733 -0.0535,7.51755 -0.38665,10.62921 -1.01735,9.50332 -3.22351,-5.75446 -12.35691,-27.46208 -15.64363,-37.18065 -2.13905,-6.325 -3.8958,-10.71505 -3.9039,-9.75566 -0.0278,3.28988 8.77713,28.2613 16.38002,46.45508 L 462,189.89883 v 47.9882 47.98819 l -6.02985,10.81239 c -3.31641,5.94681 -6.2902,11.82489 -6.60841,13.06239 -0.3182,1.2375 -0.88419,2.25 -1.25774,2.25 -2.19816,0 -17.52935,-18.81598 -24.87528,-30.52943 -5.25804,-8.38422 -11.31346,-22.43086 -13.99786,-32.47057 -2.12083,-7.93194 -2.5512,-11.81083 -2.60738,-23.5 -0.0729,-15.16344 0.57415,-19.19892 7.43189,-46.35245 6.40778,-25.37185 7.13968,-36.54755 3.36391,-51.36431 l -1.45681,-5.71677 3.42668,-4.48919 c 4.07889,-5.34364 4.86234,-7.55127 8.01327,-22.580048 C 428.7282,88.673754 430.114,82.6 430.48197,81.5 c 0.52704,-1.575495 0.45626,-1.675097 -0.33345,-0.469261 -0.55137,0.841906 -2.17141,6.142084 -3.60008,11.778174 -1.42868,5.636089 -3.4832,12.597257 -4.56561,15.469257 -1.93028,5.12169 -6.3783,11.70798 -7.24093,10.72183 -0.24056,-0.275 -2.3595,-4.325 -4.70876,-9 -4.55282,-9.06007 -10.90796,-20.208519 -13.3961,-23.5 -0.83153,-1.1 1.51824,4.075 5.22172,11.5 3.70347,7.425 7.93447,17.14888 9.40222,21.60862 2.98051,9.05623 4.29885,21.5726 2.99045,28.39138 l -0.86347,4.5 -1.81823,-5.5 C 406.39275,131.34007 397.03997,118.19631 383.24661,107.19666 374.69647,100.37827 368.5215,94.317709 364.70643,89 c -1.72475,-2.404086 -1.72475,-2.370394 0,0.878193 2.34056,4.408443 7.87266,10.078186 17.99779,18.445577 13.86319,11.45651 23.07423,26.1446 27.4068,43.70335 l 2.10404,8.52712 -6.13459,18.6208 -6.13459,18.62079 -5.72294,0.98931 c -11.92188,2.0609 -26.96555,-2.62445 -37.72294,-11.74881 -4.99326,-4.23525 -4.99258,-4.23386 0.5,1.03604 9.68329,9.29069 27.40065,15.42048 37.8105,13.08154 2.30422,-0.51772 4.18359,-0.65165 4.17636,-0.29761 -0.007,0.35403 -0.90131,4.9187 -1.98686,10.1437 -3.70476,17.83188 -2.28739,37.71353 4.11307,57.69444 2.99111,9.33766 3.03469,9.72564 1.24334,11.07094 -3.41074,2.56145 -11.32995,6.2672 -16.62096,7.77766 l -5.23545,1.49461 4.5,-0.56781 c 2.475,-0.3123 8.15812,-2.0352 12.62914,-3.82866 l 8.12915,-3.26084 3.22323,6.55983 c 7.58066,15.42794 17.77202,28.96321 40.76848,54.14509 L 462,355.49941 v 69.25029 c 0,38.08767 0.1125,69.5878 0.25,70.0003 0.1375,0.4125 -4.31546,0.87772 -9.89546,1.03383 l -10.14546,0.28383 -5.01745,-9.30736 c -2.75961,-5.11905 -7.46196,-12.71448 -10.44968,-16.87874 -2.98771,-4.16426 -5.68891,-7.98673 -6.00266,-8.49438 -0.31375,-0.50765 0.0504,-6.53995 0.80917,-13.40509 3.80527,-34.42831 2.89065,-55.25266 -3.06899,-69.8751 -1.8814,-4.61616 -3.18599,-8.77284 -2.89908,-9.23707 0.90923,-1.47116 8.80025,-6.53076 11.91961,-7.64266 2.18687,-0.77952 2.45791,-1.08993 1,-1.14523 -1.1,-0.0417 -5.11642,1.49383 -8.92537,3.41235 -3.80895,1.91852 -6.97709,3.37963 -7.0403,3.24692 -1.79152,-3.76125 -11.98232,-14.86402 -25.65928,-27.95551 -18.01536,-17.2442 -24.33115,-24.27508 -34.18251,-38.05275 l -5.80746,-8.12205 4.93218,-4.55549 c 7.41509,-6.8488 14.43111,-22.44923 14.10121,-31.35472 -0.0448,-1.21043 -0.74776,0.90678 -1.56205,4.70492 -2.3372,10.90154 -8.04506,20.65965 -14.74931,25.2153 -1.92555,1.30845 -3.77061,2.379 -4.10014,2.379 -1.24891,0 -8.54611,-16.87221 -11.0287,-25.5 -3.14985,-10.94674 -4.21039,-25.93695 -2.5743,-36.38643 1.35828,-8.67513 0.7973,-10.59823 -0.85544,-2.93257 -5.4691,25.36648 -2.49941,46.20077 10.23696,71.819 l 6.21451,12.5 -7.5,0.10054 c -4.125,0.0553 -9.75,0.6024 -12.5,1.21578 -4.75838,1.06134 -4.63757,1.08479 2.5,0.48532 16.02718,-1.34609 18.55867,-0.1786 28.22576,13.0174 3.69917,5.04953 11.47554,14.35596 17.28082,20.68096 26.41745,28.78246 31.29636,38.73323 30.15377,61.5 -0.60613,12.07743 -3.2169,31.88517 -4.50633,34.18926 -0.48525,0.8671 -3.24385,-0.58702 -9.17397,-4.83582 C 387.31602,431.51177 379,426.13768 373.5,422.91101 l -10,-5.86666 -0.2232,-15.77218 c -0.12276,-8.67469 -0.34776,-17.54343 -0.5,-19.7083 -0.26981,-3.83674 -0.13793,-4.00984 5.2232,-6.85572 4.86318,-2.58155 5.09475,-2.83552 2,-2.19344 -1.925,0.39939 -4.77932,1.38015 -6.34293,2.17946 -1.56361,0.79932 -2.95342,1.30762 -3.08846,1.12957 -0.13503,-0.17806 -1.98298,-3.88439 -4.10653,-8.23629 -4.32154,-8.85633 -7.44975,-13.06066 -19.41019,-26.08745 -4.5448,-4.95 -9.56149,-11.25 -11.1482,-14 -1.58671,-2.75 -2.88914,-4.64754 -2.89431,-4.21676 -0.0268,2.23486 5.71689,11.48665 12.28881,19.7946 l 7.41344,9.37178 -3.60581,1.61671 c -1.9832,0.88919 -4.28082,2.44162 -5.10582,3.44984 -1.43512,1.75383 -1.39187,1.76389 1,0.23245 1.375,-0.88037 4.075,-1.88049 6,-2.22249 3.29495,-0.5854 3.65395,-0.37004 6.12771,3.67602 7.82247,12.79433 11.03746,28.21935 8.96339,43.00487 -0.71697,5.11114 -1.45827,9.45797 -1.64733,9.65963 -0.18906,0.20166 -4.97874,-2.17146 -10.64375,-5.27359 -24.13057,-13.21377 -37.58287,-26.8552 -47.36809,-48.03402 -8.15306,-17.64623 -15.91339,-47.50041 -18.39593,-70.76963 -2.53926,-23.80085 -0.35289,-41.69875 8.63572,-70.69288 3.07846,-9.93004 4.13561,-12.04627 8.18176,-16.3784 7.0705,-7.57024 15.77202,-13.83135 21.50373,-15.47284 5.15588,-1.47658 9.92926,-5.00455 11.83245,-8.74529 0.55966,-1.1 -0.39931,-0.32769 -2.13104,1.71625 -2.39383,2.82542 -4.66888,4.17235 -9.49075,5.61894 -5.82313,1.74699 -17.44758,8.90509 -20.56869,12.6658 -2.96266,3.56979 -2.43366,0.65411 2.22273,-12.25099 8.62222,-23.89631 12.69208,-36.32439 13.89119,-42.41936 l 1.16307,-5.91177 4.2302,0.63436 c 4.65375,0.69787 8.00128,-0.58517 13.4176,-5.14271 3.18826,-2.68274 7.67019,-10.14969 6.6841,-11.13579 -0.2923,-0.2923 -2.63811,-9.9e-4 -5.2129,0.64735 -5.73294,1.44357 -13.07629,6.35139 -15.26759,10.20387 -2.85452,5.01847 -3.62456,3.37444 -3.69125,-7.88082 -0.0572,-9.648 -2.83668,-27.178111 -4.10774,-25.907058 -0.24558,0.245584 0.25502,4.144698 1.11245,8.664688 2.63248,13.87734 1.67323,27.10499 -2.98204,41.12068 -1.26795,3.81743 -1.90501,4.57269 -3.50433,4.15445 C 302.73918,150.96004 302,149.90818 302,148.49638 c 0,-3.97539 -6.07616,-11.59148 -11.79482,-14.78409 -2.91215,-1.62579 -5.58823,-2.66257 -5.94683,-2.30397 -1.45335,1.45334 3.34685,12.18818 7.2905,16.304 3.45238,3.60311 4.62523,4.22023 7.79412,4.1011 2.05162,-0.0771 4.23077,0.36032 4.84255,0.9721 0.81645,0.81645 -1.55901,7.54398 -8.93006,25.29082 l -10.04239,24.17848 -1.75564,-2.67945 c -0.96561,-1.4737 -5.85105,-6.09051 -10.85654,-10.25959 l -9.10089,-7.58013 8.40311,8.49447 c 4.62171,4.67196 9.18559,10.00762 10.14195,11.85701 1.70941,3.30563 1.68768,3.49836 -1.28399,11.38771 -1.66256,4.41384 -4.0223,11.17516 -5.24387,15.02516 l -2.22105,7 -5.84729,-0.2108 C 246.50458,234.53415 225.39342,207.63132 225.63182,182 c 0.13761,-14.79493 4.338,-20.8944 20.58841,-29.89681 5.51259,-3.05387 11.38887,-7.23923 13.91182,-9.90864 l 4.36795,-4.62151 -5.03152,4.54919 c -2.76734,2.50206 -8.84234,6.52825 -13.5,8.94709 -11.28087,5.85844 -18.26152,12.66362 -20.37432,19.86218 -3.47089,11.82575 -1.46169,25.71503 5.72016,39.54249 7.66243,14.75275 20.55808,25.24931 33.96349,27.64499 l 6.90171,1.23341 -0.62391,3.0738 c -2.27487,11.20744 -3.5695,21.37782 -3.79512,29.81368 -0.14327,5.35694 -0.61047,9.74444 -1.03822,9.75 -1.61344,0.021 -14.77754,-6.95288 -20.64242,-10.93564 -20.91937,-14.20608 -41.31595,-41.67831 -62.95939,-84.80025 l -4.13878,-8.24601 2.95767,-4.08294 c 3.73676,-5.15844 4.67787,-8.05861 6.98579,-21.52778 1.02698,-5.99349 2.17293,-11.79725 2.54655,-12.89725 0.60671,-1.78623 0.55948,-1.8137 -0.44196,-0.25699 -0.6167,0.95865 -2.18036,6.85023 -3.47478,13.0924 -2.42644,11.70113 -4.86399,17.82785 -8.34561,20.97643 -1.971,1.78246 -2.07299,1.6814 -6.29,-6.23308 -2.35758,-4.42471 -4.42215,-7.90928 -4.58793,-7.7435 -0.29407,0.29407 21.28761,46.0923 27.47265,58.29941 2.90652,5.73644 2.99754,6.23197 1.40212,7.63349 -3.38552,2.97406 -10.24114,5.7442 -17.14638,6.92832 -10.19435,1.74813 -17.3765,0.0909 -27.09961,-6.25316 -6.5967,-4.30413 -20.29076,-10.08319 -23.38534,-9.86889 -0.59117,0.0409 1.86247,1.10258 5.45252,2.3592 8.1409,2.84954 11.552,4.60707 19.49225,10.04318 11.39272,7.79976 26.34794,8.38786 39.95355,1.57113 5.39117,-2.7011 6.1323,-2.84845 7.02683,-1.39706 8.46508,13.73477 18.56982,27.4385 25.83957,35.04279 10.93566,11.4389 19.31435,17.84966 31.26495,23.92163 l 9.10452,4.62591 1.14548,9.32097 c 1.65972,13.50544 1.86151,12.73076 -3.10452,11.91832 -5.44852,-0.89137 -18.28129,-5.84339 -32.25,-12.44492 -25.77031,-12.1789 -32.4346,-14.0037 -55,-15.06 -14.23414,-0.66631 -18.26701,-1.21751 -24.78749,-3.38784 -14.47972,-4.81954 -25.26131,-11.38019 -35.72562,-21.73919 -6.59739,-6.53101 -5.68708,-4.70199 1.47886,2.97135 13.38707,14.33498 38.60161,26.1435 55.94421,26.19991 15.3597,0.05 28.61284,3.67281 46.09004,12.59909 30.62097,15.63931 29.35643,15.08657 48.34841,21.13339 2.05012,0.65273 2.76605,2.399 5.63629,13.74771 3.77687,14.9335 6.49205,23.07472 11.03065,33.07451 3.37809,7.44284 11.43148,20.30654 14.09902,22.52041 1.34178,1.11357 0.13237,1.6865 -8.2714,3.91836 -5.41364,1.43774 -14.25714,3.91451 -19.65224,5.50393 -7.58839,2.23557 -10.20891,2.64027 -11.57443,1.78749 -0.97084,-0.6063 -7.58167,-4.35071 -14.69073,-8.32092 -18.96417,-10.59093 -24.9617,-14.8291 -39.14165,-27.65953 -22.11906,-20.01397 -31.81384,-24.95672 -51.09178,-26.04842 -9.93063,-0.56236 -10.31757,-0.66958 -9.67475,-2.68081 2.39878,-7.5053 0.64536,-12.42498 -6.91076,-19.38997 -6.01645,-5.54577 -6.9788,-5.43014 -6.38334,0.76697 0.61685,6.41972 4.52749,13.98832 8.53988,16.52798 1.73789,1.1 3.17712,2.61682 3.19831,3.37072 0.0312,1.11059 -2.30586,1.29267 -12.31486,0.95946 -11.4945,-0.38267 -12.81222,-0.63715 -18.95284,-3.66017 C 104.7182,333.75135 90.729205,322.74861 78.634741,310.5951 73.109415,305.04279 70.4486,302.75 72.721819,305.5 c 5.455029,6.59916 20.284802,21.01139 27.670461,26.89139 13.6122,10.83718 18.38224,12.31357 43.8753,13.57999 10.32217,0.51278 19.20967,1.20554 19.75,1.53949 1.8403,1.13737 0.98919,2.48913 -1.56724,2.48913 -5.10913,0 -13.29969,6.66345 -16.84016,13.70034 -2.13384,4.24115 -2.07056,4.44608 1.13982,3.69078 9.80856,-2.30763 18.4617,-8.88248 18.83769,-14.31328 0.32087,-4.63481 1.03306,-5.12293 5.2855,-3.62258 10.14374,3.57892 14.04609,6.44785 31.31914,23.02518 14.59144,14.00374 19.38707,17.74138 36.0525,28.09878 7.00966,4.35643 12.74716,8.15448 12.75,8.44011 0.006,0.57069 -12.68878,4.12439 -23.16,6.48342 -11.99473,2.70227 -26.15552,3.6808 -36.6682,2.53383 -23.60236,-2.5751 -31.23901,-5.47996 -50.16663,-19.08254 -5.775,-4.15029 -13.2436,-9.40777 -16.5969,-11.6833 -7.52555,-5.1068 -33.530663,-20.47651 -33.944865,-20.06231 -0.166345,0.16635 6.525002,4.48455 14.869665,9.59601 8.34465,5.11147 21.93961,14.33402 30.21102,20.49457 8.27141,6.16054 16.06052,11.87599 17.30913,12.70099 2.08841,1.37988 1.36456,1.5038 -9.03892,1.54744 -12.18464,0.0511 -13.44323,0.38142 -34.10304,8.9498 -9.968787,4.13443 -23.118707,7.59671 -38.33911,10.09444 -5.720927,0.93882 -10.199458,1.90918 -9.952291,2.15634 0.528932,0.52893 21.940475,-2.29815 32.262415,-4.25979 3.947408,-0.75018 14.072406,-3.73708 22.499996,-6.63755 14.57428,-5.01593 15.81146,-5.27176 25.3229,-5.23639 8.59738,0.032 12.59484,0.70418 28.5,4.79248 15.93319,4.09552 20.32288,4.83251 31.63819,5.31181 19.82435,0.83973 32.17328,-1.12772 72.86181,-11.60848 8.8,-2.26674 21.30861,-4.89681 27.79692,-5.84458 10.46619,-1.52885 12.06671,-1.55641 14.18865,-0.24438 1.31545,0.81337 6.80684,4.45427 12.20308,8.09088 5.39624,3.63661 15.21135,9.78127 21.81135,13.65479 15.93681,9.35328 28.13493,18.12618 37.70504,27.11751 4.32281,4.06137 7.70267,7.5413 7.5108,7.73317 -0.19187,0.19187 -3.69393,-0.93424 -7.78235,-2.50247 -15.45652,-5.92878 -24.75176,-7.51897 -43.93349,-7.51597 -16.38667,0.003 -18.89961,0.26976 -39.5,4.20003 -31.42665,5.99578 -41.24505,6.84961 -56.08601,4.87737 C 241.8613,463.80566 233.125,462.86566 229,462.58758 c -8.41882,-0.56756 -9.21123,-0.77677 14,3.69626 15.75891,3.03689 36.28928,2.92613 59.5,-0.321 20.20945,-2.82726 44.94476,-3.28684 56,-1.04048 l 7,1.42236 -4.5,1.16919 c -11.57235,3.00675 -20.64349,11.30343 -23.87765,21.83906 l -1.88698,6.14703 -80.86768,0.28321 -80.86769,0.2832 -9.37355,-2.7832 c -9.24224,-2.74422 -9.5049,-2.90992 -18.75,-11.82858 C 140.2194,476.47967 136,472.76581 136,473.20161 c 0,0.4358 3.2625,4.24837 7.25,8.47237 3.9875,4.22401 6.53531,7.41743 5.6618,7.09649 -0.8735,-0.32094 -6.4985,-1.85466 -12.5,-3.40828 -9.21927,-2.38662 -12.92823,-2.82767 -23.9118,-2.84348 -15.482529,-0.0223 -20.318388,1.30309 -31.398267,8.60539 L 73.703466,496 H 42.851733 12 Z M 266.12756,135.25 c 1.24387,-1.58606 1.2085,-1.62143 -0.37756,-0.37756 -0.9625,0.75485 -1.75,1.54235 -1.75,1.75 0,0.82304 0.82119,0.29331 2.12756,-1.37244 z m 42.55555,-41.4375 c -0.31922,-0.797733 -0.55618,-0.560776 -0.60416,0.604167 -0.0434,1.054166 0.19293,1.644791 0.52522,1.3125 0.33229,-0.332292 0.36781,-1.194792 0.0789,-1.916667 z m 53.43896,-10.487497 c -1.17884,-2.027217 -1.46351,-1.378356 -0.49853,1.136338 0.34294,0.893703 0.83419,1.414259 1.09166,1.15679 0.25747,-0.257469 -0.009,-1.289377 -0.59313,-2.293128 z M 78.5,494.35567 c 1.1,-0.8694 5.375,-3.21759 9.5,-5.2182 l 7.5,-3.63747 14,0.0706 c 13.07324,0.0659 14.79982,0.30947 26.08237,3.67873 22.97534,6.86102 23.8219,6.58123 -20.08237,6.63726 -35.723399,0.0456 -38.831969,-0.083 -37,-1.53095 z M 339.39384,492.75 c 1.78678,-9.01948 11.01983,-17.65609 21.11612,-19.75207 9.76731,-2.02768 17.91473,0.50005 39.37113,12.2149 C 412.91183,492.3274 415,493.69608 415,495.12244 415,495.61051 398.07863,496 376.875,496 H 338.75 Z M 458.17431,322.68555 C 456.97844,321.4126 456,319.37891 456,318.16623 c 0,-2.33448 5.14538,-16.35418 5.77214,-15.72743 0.20237,0.20238 0.44893,5.36153 0.5479,11.46479 0.19194,11.8358 -0.29926,12.87633 -4.14573,8.78196 z M 461.2257,175.25 c -1.0935,-2.68944 -0.85931,-25.01621 0.2743,-26.15134 0.66673,-0.66762 1,3.81455 1,13.44899 0,7.94767 -0.12662,14.45077 -0.28138,14.45133 -0.15477,5.6e-4 -0.60158,-0.78648 -0.99292,-1.74898 z"
       id="path48" />
  </g>
</svg>
