<?xml version="1.0" encoding="UTF-8" standalone="no"?>
<!-- Created with Inkscape (http://www.inkscape.org/) -->

<svg
   version="1.1"
   id="svg2"
   width="960.96204"
   height="247.76422"
   viewBox="0 0 960.96204 247.76422"
   sodipodi:docname="Revit.svg"
   inkscape:version="1.1.2 (08b2f3d93c, 2022-04-05)"
   xmlns:inkscape="http://www.inkscape.org/namespaces/inkscape"
   xmlns:sodipodi="http://sodipodi.sourceforge.net/DTD/sodipodi-0.dtd"
   xmlns="http://www.w3.org/2000/svg"
   xmlns:svg="http://www.w3.org/2000/svg">
  <defs
     id="defs6" />
  <sodipodi:namedview
     id="namedview4"
     pagecolor="#ffffff"
     bordercolor="#666666"
     borderopacity="1.0"
     inkscape:pageshadow="2"
     inkscape:pageopacity="0.0"
     inkscape:pagecheckerboard="0"
     showgrid="false"
     fit-margin-top="10"
     fit-margin-left="10"
     fit-margin-right="10"
     fit-margin-bottom="10"
     lock-margins="true"
     inkscape:zoom="0.70192133"
     inkscape:cx="333.37069"
     inkscape:cy="158.13738"
     inkscape:window-width="1920"
     inkscape:window-height="1052"
     inkscape:window-x="0"
     inkscape:window-y="0"
     inkscape:window-maximized="1"
     inkscape:current-layer="g8" />
  <g
     inkscape:groupmode="layer"
     inkscape:label="Image"
     id="g8"
     transform="translate(-271.03796,-91)">
    <path
       style="fill:#000000"
       d="m 602.54927,327.34524 c -4.32236,-2.37226 -5.74245,-4.42323 -13.56772,-19.59524 L 581.88971,294 h -6.42068 -6.42067 l -0.27418,16.75 -0.27418,16.75 -8.41435,0.2931 c -6.05663,0.21097 -8.6442,-0.0692 -9.23468,-1 -0.45119,-0.71121 -0.82724,-21.18977 -0.83566,-45.50792 -0.0148,-42.69872 0.051,-44.25031 1.91895,-45.25 2.70715,-1.44882 30.03033,-1.20502 38.68397,0.34518 12.2369,2.1921 20.81316,9.13451 23.50086,19.02376 1.79947,6.62104 0.5573,18.56415 -2.4216,23.28304 -2.40769,3.81402 -6.29927,7.55807 -10.31353,9.92252 -1.77507,1.04555 -1.57503,1.7083 3.46087,11.46635 6.76693,13.11226 7.19037,13.69168 10.96833,15.00868 2.42879,0.84668 3.27017,1.84253 3.75922,4.44939 0.34653,1.84721 0.21115,4.62021 -0.30085,6.16223 -0.87875,2.64652 -1.29078,2.81669 -7.35123,3.03602 -4.40569,0.15945 -7.3462,-0.27581 -9.37103,-1.38711 z M 590.76098,276.48212 C 594.75342,274.12373 596,271.19546 596,264.17545 c 0,-10.02666 -3.84407,-12.92715 -17.57251,-13.25912 l -8.92749,-0.21588 -0.2783,14.28752 -0.27829,14.28751 9.37449,-0.49035 c 6.54907,-0.34256 10.29934,-1.03667 12.44308,-2.30301 z m 45.84601,49.93609 C 636.27314,325.54823 636,305.16323 636,281.11821 c 0,-32.66972 0.30326,-44.02147 1.2,-44.91821 0.87,-0.87 8.14774,-1.2 26.46482,-1.2 28.60332,0 27.33518,-0.38242 27.33518,8.24313 0,7.57008 -0.29082,7.69242 -19,7.99235 L 655.5,251.5 655.21725,262.75 654.9345,274 h 14.95096 c 8.22303,0 15.66277,0.27314 16.53275,0.60699 1.19581,0.45887 1.58179,2.05102 1.58179,6.52475 0,5.5028 -0.18852,5.98944 -2.68851,6.93993 -1.47869,0.5622 -8.34119,0.9775 -15.25,0.92289 -6.90882,-0.0546 -13.12399,-0.0757 -13.81149,-0.0469 C 655.32235,288.9865 655,292.09459 655,301 v 12 h 16.96482 C 691.08909,313 691,312.96325 691,320.85247 691,328.46041 692.77143,328 663.5,328 c -23.04692,0 -26.36082,-0.19492 -26.89301,-1.58179 z M 731.04771,325.75 C 729.01437,320.71925 719,288.92964 719,287.50576 c 0,-0.84309 -0.43616,-2.31429 -0.96925,-3.26933 -0.53309,-0.95504 -2.52086,-6.68643 -4.41727,-12.73643 -4.42493,-14.11657 -8.87407,-28.373 -9.75619,-31.26188 -1.12962,-3.69936 1.40623,-5.23812 8.63235,-5.23812 3.49073,0 7.04066,0.26627 7.88873,0.5917 1.35285,0.51914 5.64931,12.27039 8.55848,23.4083 0.5028,1.925 2.74016,9.35 4.9719,16.5 2.23175,7.15 4.75244,15.925 5.60155,19.5 1.96229,8.2619 3.35797,11.55256 4.41188,10.40213 1.04745,-1.14339 4.39683,-11.79546 6.57234,-20.90213 0.91974,-3.85 3.38121,-12.85 5.46994,-20 2.08874,-7.15 4.40708,-15.87127 5.15187,-19.38059 1.9289,-9.08863 2.40559,-9.51566 11.03521,-9.8857 10.25155,-0.43958 10.57128,-0.0993 8.3839,8.9229 -1.91032,7.87942 -3.49253,13.28283 -7.12812,24.34339 -1.26549,3.85 -3.18274,10.375 -4.26056,14.5 -1.07782,4.125 -3.15698,11.1 -4.62037,15.5 -1.46338,4.4 -3.77846,12.25659 -5.14462,17.45908 -1.36615,5.20249 -2.96604,10.03999 -3.55529,10.75 -0.76055,0.9164 -4.37841,1.29092 -12.47036,1.29092 -10.88506,0 -11.44,-0.10144 -12.30841,-2.25 z m 66.55928,0.66821 C 797.27314,325.54823 797,305.16323 797,281.11821 c 0,-32.66972 0.30326,-44.02147 1.2,-44.91821 1.47741,-1.47741 13.18587,-1.59904 15.86574,-0.16482 1.86762,0.99952 1.93426,2.56013 1.93426,45.3 0,33.09486 -0.30281,44.56763 -1.2,45.46482 -0.72535,0.72535 -4.24289,1.2 -8.89301,1.2 -6.09253,0 -7.81929,-0.32908 -8.3,-1.58179 z M 856.2,326.8 C 855.3096,325.9096 855,315.98462 855,288.33078 V 251.06156 L 842.75,250.78078 830.5,250.5 l -0.29998,-6.33731 c -0.18042,-3.8114 0.16732,-6.90038 0.87244,-7.75 0.96447,-1.16211 6.69379,-1.41027 32.29998,-1.39904 17.12016,0.008 32.15862,0.28985 33.4188,0.62742 2.15354,0.57688 2.27373,1.04179 2,7.73635 L 898.5,250.5 886.25,250.78078 874,251.06156 v 37.26922 c 0,27.65384 -0.3096,37.57882 -1.2,38.46922 -1.5927,1.5927 -15.0073,1.5927 -16.6,0 z m -554.7,-0.50602 c -4.90075,-1.16152 -16.80088,-5.73772 -17.97574,-6.91258 -2.03757,-2.03756 -2.78349,-43.87819 -2.38146,-133.58149 0.28244,-63.02032 0.62493,-79.9678 1.6365,-80.9793 0.99134,-0.99127 8.6443,-1.25544 34,-1.1736 36.0993,0.11651 49.4199,1.54773 64.43458,6.92313 4.00736,1.43468 8.68395,3.0216 10.39242,3.52651 4.47773,1.3233 14.71232,8.16933 19.76202,13.21904 5.11201,5.11201 10.77346,14.84899 13.83613,23.79641 1.8686,5.45901 2.19343,8.64182 2.23378,21.8879 0.0447,14.66652 -0.10216,15.87441 -2.73078,22.46279 -1.52791,3.82953 -3.12339,7.20453 -3.54552,7.5 -0.42212,0.29546 -1.84972,2.33721 -3.17242,4.53721 -1.32271,2.2 -4.07444,6.13108 -6.11495,8.73573 -2.04052,2.60465 -4.25333,6.38191 -4.91735,8.39392 -1.70146,5.15548 -0.6107,13.52563 2.42729,18.62631 1.39028,2.33422 3.68228,6.49404 5.09333,9.24404 1.41106,2.75 5.00993,8.375 7.9975,12.5 6.66088,9.19682 10.71874,14.8537 19.00929,26.5 3.52371,4.95 7.44369,10.32617 8.71107,11.94705 C 455.458,310.17716 463,321.53614 463,322.73158 c 0,0.9955 -2.30745,1.17127 -10.25,0.7808 -5.6375,-0.27715 -17.71813,-0.71558 -26.84585,-0.97429 -22.53026,-0.63857 -24.22226,-1.30567 -32.81339,-12.93725 -8.5057,-11.51591 -10.61816,-14.45264 -14.45899,-20.10084 -1.87002,-2.75 -5.47718,-7.66616 -8.01591,-10.92479 -2.53872,-3.25864 -4.61801,-6.18364 -4.62064,-6.5 -0.003,-0.31637 -1.46513,-2.16654 -3.25,-4.11149 -1.78487,-1.94495 -4.75025,-5.43841 -6.58973,-7.76323 -4.1821,-5.28554 -11.27268,-9.61546 -14.21619,-8.68122 -4.31668,1.37006 -4.92985,5.55092 -5.27123,35.94177 -0.2884,25.67486 -0.49683,28.69227 -2.10474,30.46898 -1.92501,2.12711 -10.86143,5.18733 -22.06333,7.55544 -7.31412,1.54622 -7.75174,1.57838 -11,0.80852 z m 49.5039,-136.25002 c 15.52332,-4.0246 19.74934,-8.74421 19.87556,-22.19699 0.0335,-3.56701 -0.61786,-5.56623 -2.79058,-8.56558 -2.57281,-3.55166 -3.47741,-4.0339 -9.8075,-5.2283 -3.8353,-0.72367 -9.76252,-1.114 -13.17161,-0.86741 -5.06853,0.36662 -6.69153,0.94276 -8.90406,3.16077 -2.64354,2.6501 -2.70248,2.97378 -2.56523,14.08613 0.17847,14.44958 1.23476,17.8505 6.147,19.79153 4.00436,1.58229 4.44583,1.5752 11.21642,-0.18015 z m 563.39902,70.27035 c -1.1534,-0.22734 -3.57275,-1.64528 -5.37634,-3.15098 -2.72286,-2.27314 -3.36242,-3.60307 -3.76935,-7.83812 -0.45599,-4.74554 -0.24605,-5.36678 3.01677,-8.92713 3.28205,-3.58134 3.87378,-3.82665 9.23037,-3.82665 5.18771,0 5.99368,0.30238 8.60957,3.23006 2.41167,2.69913 2.88606,4.10076 2.88606,8.5272 0,4.49022 -0.4189,5.68784 -2.75,7.86203 -1.5125,1.4107 -3.73292,3.06989 -4.93426,3.68709 -2.20413,1.1324 -3.09627,1.18873 -6.91282,0.4365 z M 919,254.41667 c 0,-1.76593 -2.15276,-1.45839 -2.77083,0.39583 -0.21771,0.65312 0.31666,1.1875 1.1875,1.1875 C 918.2875,256 919,255.2875 919,254.41667 Z m -6,-5.5 c 0,-4.41923 -0.34194,-5.97089 -1.25,-5.67228 C 909.18555,244.08769 909.9954,255 912.62244,255 912.8301,255 913,252.2625 913,248.91667 Z m 11.83881,1.11587 c 0.83313,-2.38991 0.70059,-3.37978 -0.68097,-5.08594 -1.67718,-2.07123 -1.72036,-2.00506 -1.93672,2.96747 -0.24571,5.64724 1.02817,6.67818 2.61769,2.11847 z M 649.5,195.12756 C 642.34618,193.23663 637.06314,188.56176 632.40445,180 630.63056,176.73995 630.5,173.99769 630.5,140 v -36.5 h 5.5 5.5 L 642,138 c 0.47606,32.84848 0.60261,34.69148 2.64359,38.5 2.78757,5.20168 4.96706,7.05803 9.85641,8.39503 9.64205,2.63665 17.86096,0.52596 25.46408,-6.53942 l 5.53592,-5.14439 0.28867,-34.34427 c 0.1691,-20.11952 0.68507,-34.74069 1.24575,-35.30137 1.31263,-1.31263 9.23618,-0.73777 10.17446,0.73816 1.20062,1.88859 0.96798,86.49728 -0.24406,88.762 -0.75221,1.4055 -2.10289,1.93426 -4.94099,1.93426 -4.3238,0 -5.14551,-0.81167 -5.97252,-5.89958 l -0.56363,-3.4675 -3.49384,3.06645 c -5.46379,4.79542 -10.47348,6.47423 -20.49384,6.86773 -4.95,0.19438 -10.35,-0.003 -12,-0.43954 z m 167.77406,-0.11438 c -5.42661,-1.15657 -12.5031,-5.31276 -15.91607,-9.34787 C 799.88548,183.92439 797.29005,179.575 795.59035,176 L 792.5,169.5 v -20 c 0,-22.26682 0.59361,-25.49403 6.30627,-34.28471 C 804.85731,105.9039 815.11676,101 828.54609,101 c 16.57735,0 27.85124,6.96294 33.19214,20.5 2.70058,6.84491 2.76143,7.45419 2.74654,27.5 -0.015,20.25308 -0.0494,20.58124 -2.85434,27.24503 -3.28439,7.80286 -10.84582,15.52345 -17.22537,17.58796 -5.01705,1.62358 -21.65486,2.34733 -27.131,1.18019 z m 23.39663,-11.71205 C 849.99956,178.48417 853,169.92146 853,148.11549 c 0,-15.55168 -1.87198,-24.26391 -6.28434,-29.24734 -4.92211,-5.55916 -8.3735,-6.87432 -17.916,-6.82693 -11.27879,0.056 -15.98123,2.3716 -20.22403,9.95878 L 805.5,127.5 v 21 c 0,18.76104 0.20649,21.41617 1.93674,24.9034 2.72607,5.49429 7.72781,10.17124 12.22681,11.43287 5.66899,1.58972 16.48622,0.79923 21.00714,-1.53514 z M 1063.5,195.04269 c -6.667,-1.46052 -9.2813,-2.79995 -14.057,-7.20204 -4.6508,-4.28688 -6.5907,-7.70115 -7.7685,-13.67251 C 1040.6896,169.17536 1042.3058,167 1047,167 c 4.1585,0 6,1.81592 6,5.9167 0,1.1265 1.9125,4.03194 4.25,6.45652 3.539,3.67083 5.2491,4.61349 10.222,5.63455 10.8001,2.21752 22.6156,-0.50026 25.8297,-5.94128 1.122,-1.89946 1.6983,-5.04974 1.6983,-9.28369 0,-5.72162 -0.2948,-6.67523 -2.75,-8.89572 -4.7861,-4.32852 -5.6427,-4.74781 -16.9318,-8.28731 -24.4669,-7.67119 -31.2488,-13.32802 -31.2907,-26.09977 -0.024,-7.46645 1.5094,-11.4999 6.3151,-16.60629 3.4444,-3.65983 5.7384,-5.04676 11.1647,-6.75 11.3401,-3.559513 24.4678,-2.56083 34.3174,2.61068 6.7127,3.52452 14.2061,18.09373 11.1809,21.73884 -2.9429,3.54602 -12.0056,0.43203 -12.0056,-4.1252 0,-3.25835 -4.0404,-8.16703 -8.0394,-9.76713 -5.3085,-2.12405 -17.6436,-2.11167 -22.9788,0.023 -4.8214,1.92914 -6.9818,5.51979 -6.9818,11.60388 0,4.91263 1.8582,8.13038 5.9032,10.22213 4.0641,2.10159 21.3639,8.53455 22.9741,8.5429 3.186,0.0165 14.3722,6.53751 17.0072,9.91435 9.7261,12.4643 5.432,32.01321 -8.4773,38.59338 -4.7029,2.2248 -7.3031,2.71011 -16.2529,3.03345 -5.8599,0.2117 -12.4543,-0.009 -14.6543,-0.49135 z m -522.10243,-1.44903 c -0.29682,-0.77349 0.88274,-5.38599 2.62124,-10.25 1.73849,-4.86401 3.51414,-10.19366 3.94587,-11.84366 1.79958,-6.87766 8.30736,-26.07173 9.13744,-26.95 0.49383,-0.5225 0.89788,-1.67176 0.89788,-2.55391 0,-0.88216 2.06131,-7.65466 4.58068,-15.05 2.51938,-7.39535 5.02438,-15.32839 5.56667,-17.62898 0.5423,-2.30059 1.58937,-4.68364 2.32682,-5.29567 0.7936,-0.65864 4.28975,-0.99212 8.56635,-0.81712 l 7.22552,0.29568 1.50953,5 c 0.83024,2.75 3.62559,11.075 6.21189,18.5 2.58631,7.425 5.48537,15.975 6.44236,19 0.957,3.025 2.14058,6.4 2.63019,7.5 0.48961,1.1 2.027,5.6 3.41641,10 5.01759,15.88978 5.74968,18.05272 7.24396,21.4021 0.8348,1.87116 1.57672,4.79616 1.64871,6.5 0.12842,3.039 0.0341,3.10354 -4.95791,3.39457 -3.28034,0.19124 -5.46185,-0.16415 -6.13848,-1 C 603.69539,193.0835 601.42345,186.875 599.22394,180 l -3.99911,-12.5 -16.56441,-0.27396 c -19.2778,-0.31884 -16.875,-1.90517 -21.59491,14.25699 -1.76408,6.04067 -3.68059,11.55317 -4.25891,12.25 -1.48092,1.7844 -10.7141,1.6716 -11.40903,-0.13937 z M 591,155.4379 c 0,-0.82408 -2.91706,-10.10017 -5.16925,-16.4379 -1.07496,-3.025 -3.03056,-8.99635 -4.34576,-13.26967 -3.26392,-10.60506 -3.64543,-10.98348 -5.23969,-5.19726 -2.39053,8.67626 -3.0687,10.86129 -4.80047,15.46693 -1.62054,4.30982 -5.39195,17.68558 -5.42769,19.25 -0.009,0.4125 5.60786,0.75 12.48286,0.75 6.875,0 12.5,-0.25295 12.5,-0.5621 z m 151.66667,38.89543 C 742.3,193.96667 742,175.51667 742,153.33333 V 113 h -12.3 c -13.57184,0 -14.7,-0.43599 -14.7,-5.68095 0,-2.57315 0.48539,-3.39937 2.25,-3.82988 1.2375,-0.30191 15.975,-0.42299 32.75,-0.26905 L 780.5,103.5 v 4.5 4.5 l -12.5,0.5 -12.5,0.5 -0.26175,39.4117 c -0.17974,27.06195 -0.60979,39.83106 -1.37245,40.75 -1.13887,1.37225 -9.96896,1.90181 -11.19913,0.67163 z M 888.33465,193.75 c -0.43087,-0.6875 -0.80322,-20.96888 -0.82746,-45.06973 -0.0341,-33.86336 0.23975,-44.05528 1.20505,-44.85641 0.80904,-0.67144 8.03796,-0.88087 20.51844,-0.59445 22.1901,0.50926 23.95381,0.99457 32.29957,8.88764 8.58196,8.11646 9.86625,12.15503 10.29802,32.38295 0.23406,10.96586 -0.0677,18.95222 -0.85014,22.5 -2.93518,13.3087 -12.91564,23.14307 -26.97813,26.58326 -7.34782,1.79754 -34.56357,1.92478 -35.66535,0.16674 z m 37.14693,-11.84634 c 6.24564,-2.9358 11.10905,-8.68768 13.08089,-15.47054 2.0688,-7.11642 1.72945,-35.3625 -0.47374,-39.43312 -5.94342,-10.98102 -12.03964,-14 -28.27023,-14 H 900 v 35.5 35.5 h 10.5109 c 8.58698,0 11.32722,-0.38372 14.97068,-2.09634 z M 974.45781,193.75 C 974.19413,193.0625 974.09576,172.475 974.2392,148 L 974.5,103.5 h 25.5 25.5 l 0.3006,3.58559 c 0.1802,2.15035 -0.2496,4.04216 -1.0738,4.72621 -0.8869,0.736 -7.7334,1.23774 -19.3006,1.41441 L 987.5,113.5 v 14 14 l 16.9565,0.27512 c 18.262,0.29629 18.5011,0.3708 18.5282,5.77488 0.026,5.186 -0.9033,5.45 -19.1847,5.45 H 987 v 15.5 15.5 h 17.5657 c 10.1962,0 18.3773,0.4343 19.5,1.03518 2.2173,1.18662 2.6884,6.81071 0.7343,8.76482 -1.7568,1.75685 -49.66745,1.70926 -50.34219,-0.05 z m 156.02119,0.0552 c -0.2753,-0.71786 -0.3832,-21.3302 -0.2398,-45.8052 l 0.2608,-44.5 5.25,-0.30226 5.25,-0.30226 v 22.55226 c 0,12.40374 0.3611,22.55226 0.8025,22.55226 0.8284,0 16.0075,-18.40424 22.1975,-26.91384 3.9384,-5.41425 9.4062,-12.17988 12.7045,-15.71999 1.8009,-1.93283 3.2094,-2.36617 7.691,-2.36617 3.0176,0 5.733,0.39892 6.0343,0.88648 0.3014,0.48756 -1.7054,3.75006 -4.4594,7.25 -2.754,3.49994 -6.9115,8.7858 -9.2388,11.74637 -2.3274,2.96056 -5.5968,7.01056 -7.2653,9 -1.6685,1.98943 -4.3098,5.34514 -5.8695,7.45713 -3.3483,4.53385 -3.2448,4.89672 4.2905,15.0467 2.812,3.78768 5.1127,7.20632 5.1127,7.59699 0,0.39067 0.9425,1.79166 2.0944,3.11332 1.1519,1.32166 4.5699,6.11772 7.5955,10.65792 4.0249,6.03983 6.2134,8.40633 8.1556,8.81921 7.0232,1.493 8.6539,3.75577 6.1193,8.49162 -1.5049,2.81198 -11.0322,2.73453 -15.0442,-0.12231 -2.5129,-1.78929 -9.5891,-11.20384 -17.9206,-23.84244 -7.2853,-11.05153 -10.0597,-15.01987 -10.8367,-15.50009 -0.473,-0.29233 -3.2908,2.49038 -6.2617,6.1838 l -5.4016,6.7153 -0.5,14 -0.5,14 -4.7602,0.30521 c -3.2258,0.20683 -4.9216,-0.11551 -5.2608,-1 z m 71.2488,-69.87801 c -3.4659,-2.85696 -3.7278,-3.45294 -3.7278,-8.48423 0,-4.56608 0.4558,-5.92157 2.918,-8.67719 2.6974,-3.01891 3.3839,-3.26578 9.082,-3.26578 5.6981,0 6.3846,0.24687 9.082,3.26578 2.3582,2.63928 2.918,4.17924 2.918,8.02749 0,5.47793 -1.6992,8.41132 -6.1619,10.63763 -5.0636,2.52605 -9.8388,2.01717 -14.1103,-1.5037 z m 10.043,-2.1147 c -0.6172,-1.85161 -2.4613,-2.06155 -3.1162,-0.35476 -0.4148,1.08089 0.022,1.54226 1.4601,1.54226 1.1395,0 1.876,-0.52804 1.6561,-1.1875 z M 1205,114.91667 c 0,-3.61956 -0.3599,-4.9648 -1.25,-4.67168 -1.5046,0.4955 -2.1412,4.06028 -1.3138,7.35672 1.0489,4.17923 2.5638,2.59269 2.5638,-2.68504 z m 11.965,2.1488 c 0.7263,-1.35722 0.6942,-2.77471 -0.1078,-4.75 l -1.143,-2.81547 -0.823,3.5 c -1.2485,5.30991 0.048,7.85113 2.0738,4.06547 z"
       id="path406" />
  </g>
</svg>
