<?xml version="1.0" encoding="UTF-8" standalone="no"?>
<svg
   height="2031.8354"
   viewBox="117.806 161.288 464.388 306.74539"
   width="2500"
   version="1.1"
   id="svg4"
   sodipodi:docname="twitter-3.svg"
   inkscape:version="1.1.2 (08b2f3d93c, 2022-04-05)"
   xmlns:inkscape="http://www.inkscape.org/namespaces/inkscape"
   xmlns:sodipodi="http://sodipodi.sourceforge.net/DTD/sodipodi-0.dtd"
   xmlns="http://www.w3.org/2000/svg"
   xmlns:svg="http://www.w3.org/2000/svg">
  <defs
     id="defs8" />
  <sodipodi:namedview
     id="namedview6"
     pagecolor="#ffffff"
     bordercolor="#666666"
     borderopacity="1.0"
     inkscape:pageshadow="2"
     inkscape:pageopacity="0.0"
     inkscape:pagecheckerboard="0"
     showgrid="false"
     fit-margin-top="0"
     fit-margin-left="0"
     fit-margin-right="0"
     fit-margin-bottom="0"
     inkscape:zoom="0.20336391"
     inkscape:cx="1649.7519"
     inkscape:cy="1376.8421"
     inkscape:window-width="1920"
     inkscape:window-height="1052"
     inkscape:window-x="0"
     inkscape:window-y="0"
     inkscape:window-maximized="1"
     inkscape:current-layer="svg4" />
  <path
     d="m 582.194,170.78515 c -17.078,7.567 -35.424,12.68 -54.71,14.991 19.675,-11.78 34.769,-30.474 41.886,-52.726 -18.407,10.922 -38.798,18.857 -60.497,23.111 -17.385,-18.488 -42.132,-30.064 -69.538,-30.064 -52.603,0 -95.266,42.663 -95.266,95.307 a 97.3,97.3 0 0 0 2.454,21.68 c -79.211,-3.989 -149.383,-41.928 -196.382,-99.562 -8.18,14.112 -12.885,30.474 -12.885,47.899 0,33.05 16.833,62.236 42.377,79.314 a 95.051,95.051 0 0 1 -43.154,-11.924 v 1.227 c 0,46.16 32.826,84.672 76.43,93.426 a 95.97,95.97 0 0 1 -25.095,3.313 95.929,95.929 0 0 1 -17.936,-1.677 c 12.128,37.836 47.306,65.406 89.008,66.142 -32.622,25.565 -73.71,40.802 -118.337,40.802 -7.69,0 -15.278,-0.45 -22.743,-1.33 42.173,27.06 92.24,42.807 146.029,42.807 175.275,0 271.094,-145.17 271.094,-271.073 0,-4.09 -0.103,-8.222 -0.287,-12.312 18.612,-13.458 34.769,-30.208 47.51,-49.29 z"
     fill="#1da1f2"
     id="path2"
     style="fill:#000000" />
</svg>
