<?xml version="1.0" encoding="UTF-8" standalone="no"?>
<svg
   height="1379.4713"
   viewBox="0 0.03 1995.8137 1380.8342"
   width="1994.2158"
   version="1.1"
   id="svg8"
   sodipodi:docname="youtube-3.svg"
   inkscape:version="1.1.2 (08b2f3d93c, 2022-04-05)"
   xmlns:inkscape="http://www.inkscape.org/namespaces/inkscape"
   xmlns:sodipodi="http://sodipodi.sourceforge.net/DTD/sodipodi-0.dtd"
   xmlns="http://www.w3.org/2000/svg"
   xmlns:svg="http://www.w3.org/2000/svg">
  <defs
     id="defs12" />
  <sodipodi:namedview
     id="namedview10"
     pagecolor="#ffffff"
     bordercolor="#666666"
     borderopacity="1.0"
     inkscape:pageshadow="2"
     inkscape:pageopacity="0.0"
     inkscape:pagecheckerboard="0"
     showgrid="false"
     fit-margin-top="0"
     fit-margin-left="0"
     fit-margin-right="0"
     fit-margin-bottom="0"
     inkscape:zoom="0.2876"
     inkscape:cx="996.17524"
     inkscape:cy="688.45619"
     inkscape:window-width="1920"
     inkscape:window-height="1052"
     inkscape:window-x="0"
     inkscape:window-y="0"
     inkscape:window-maximized="1"
     inkscape:current-layer="svg8" />
  <path
     d="M -251.15568,-558.80476 H 2246.8443 V 1939.1952 H -251.15568 Z"
     fill="none"
     id="path4" />
  <path
     d="m 1042.0843,1379.0552 -409.53998,-7.49 c -132.6,-2.61 -265.53,2.6 -395.53,-24.44 -197.760001,-40.4 -211.770001,-238.49 -226.430001,-404.64996 -20.2000003,-233.6 -12.3800003,-471.44 25.74,-703.09 21.52,-129.98 106.210001,-207.539997 237.180001,-215.979997 442.12,-30.63 887.17998,-27 1328.31998,-12.71 46.59,1.31 93.5,8.47 139.44,16.62 226.77,39.75 232.3,264.229997 247,453.199997 14.66,190.92 8.47,382.82 -19.55,572.43996 -22.48,157 -65.49,288.66 -247,301.37 -227.42,16.62 -449.62,30 -677.68,25.74 0.01,-1.01 -1.3,-1.01 -1.95,-1.01 z M 801.31432,981.57524 c 171.38,-98.4 339.48998,-195.16 509.88998,-292.9 -171.7,-98.4 -339.48998,-195.16 -509.88998,-292.9 z"
     fill="#f00"
     id="path6"
     style="fill:#000000" />
</svg>
